<?xml version="1.0" encoding="utf-8"?>
<!DOCTYPE svg>
<svg version="1.1" baseProfile="full" xmlns="http://www.w3.org/2000/svg" xmlns:xlink="http://www.w3.org/1999/xlink" x="0px" y="0px" width="380px" height="238px" viewBox="0 0 380 238" enable-background="new 0 0 380 238" xml:space="preserve">
<path d="M257.2,153.3c-5.6,5.6-11.4,8.2-13.6,5.9c-0.8-0.8,0,0,0,0c-0.4-0.4-14.9-16.4-31.5-33l0,0c-15-15-32.5-30.1-43.3-40.9c-10.8-10.8-28.8-31-28.8-31l0,0l-1.2-1.4l8.7-9.5l9.3-8.6l1.4,1.2c0,0,20.2,18,31,28.8c10.8,10.8,26,28.4,40.9,43.3l0,0c16.5,16.5,32.4,30.9,33.1,31.6C265.2,141.7,263.1,147.4,257.2,153.3z"/>
<linearGradient id="SVGID_2_" gradientUnits="userSpaceOnUse" x1="294.5747" y1="-644.6753" x2="312.1563" y2="-627.0936" gradientTransform="matrix(1 0 0 -1 -101 -537.5)">
<stop offset="0.1484" style="stop-color:#7B6C35"/>
<stop offset="0.8352" style="stop-color:#B8A968"/>
</linearGradient>
<path fill="url(#SVGID_2_)" d="M187.8,66.3c-10.7-10.7-30.9-28.7-30.9-28.7l-8,7.4l-7.4,8c0,0,18,20.2,28.7,30.9c10.7,10.7,28.3,25.9,43.3,41c16.5,16.5,31.2,32.7,31.4,33c0.3,0.3,3.4,1.6,10.8-5.9c7.5-7.5,6.2-10.6,6-10.7c-0.2-0.2-16.5-15-33-31.5C213.7,94.5,198.5,77,187.8,66.3z"/>
<linearGradient id="SVGID_4_" gradientUnits="userSpaceOnUse" x1="294.5576" y1="-644.6572" x2="311.8472" y2="-627.3676" gradientTransform="matrix(1 0 0 -1 -101 -537.5)">
<stop offset="9.340000e-02" style="stop-color:#2C2415"/>
<stop offset="0.7363" style="stop-color:#634E22"/>
</linearGradient>
<path fill="url(#SVGID_4_)" d="M254.3,153.3c-0.5-0.1-1.1-0.5-1.7-1.2c-0.8-0.8-16.1-16.4-32.6-32.9c-6.1-6.1-18.3-17.3-20-18.8c-3-2.6-2.7-5.3-1.1-7.8c1.6-2.6,5.5-5.8,8.1-6.1c-2.5-2.7-5-5.4-7.4-8c-7.2,4-15.5,8.8-16.7,7.6c-5.8-5.8-20.4-20.4-26.6-26.5c-2.7-2.7-2.3-5.6-0.8-8.5c1.7-3.1,6-6.6,8.5-7.3l0,0c-4.2-3.8-7-6.3-7-6.3l-8,7.4l-7.4,8c0,0,18,20.2,28.7,30.9c10.7,10.7,28.3,25.9,43.3,41c16.5,16.5,31.2,32.7,31.4,33C245.2,158,247.9,159.1,254.3,153.3z"/>
<path fill="#6B581B" d="M225.1,112.3c0,0-2.1-2.5-4.6-5c-2.5-2.5-5.2-5-5.2-5s3,3.4,4.6,5.1C221.5,108.9,225.1,112.3,225.1,112.3z M187.3,73c-2.4-2.4-6.2-6.2-6.2-6.2s3.6,4.6,5.7,6.7C189,75.7,189.7,75.4,187.3,73z M182,82.4c-3.8-3.8-9.9-9.6-19.9-19.5c-7.7-7.7-13.8-13.4-15.7-15.2l-0.4,0.5c2.7,2.6,14.1,13.5,20.4,19.8c7.1,7.1,19.3,18.5,22.5,21.1c3.2,2.6,9.4,8,14.2,12.8c4.7,4.7,9.7,9.1,9.7,9.1s-8.1-8.3-11.7-11.9C197.5,95.5,186.4,86.8,182,82.4z M179.6,65.6c0,0-5-5-12.5-12.5c-5.7-5.7-11.5-11.5-13-13l0,0c1.5,1.7,7.4,8.2,12.6,13.5C172.8,59.7,179.6,65.6,179.6,65.6z M164.4,56.6c1,1,3.7,3.6,5.7,5.6c2,2,6.2,6.5,7.2,7.5c4.1,4.1,7,6.7,11.9,11.6c4.9,4.9,16.9,17.4,19.3,19.8c4.1,4.1,9.7,9.9,12.5,12.8c2.9,2.9,9.3,9.1,12.6,12.3c3.3,3.3,7.6,7.5,10.5,10.4c2.9,2.9,10.8,9.6,10.8,9.6s-12.5-12.3-17-16.8c-4.5-4.5-10.1-9.5-12.9-12.3c-3.9-3.9-10.2-10.7-13.5-14c-3.3-3.3-4.3-3.9-5-4.6c-0.7-0.7-7.5-7.9-9.4-9.7c-1.8-1.8-17.8-18-20.7-21c-2.9-2.9-6-6-7.3-7.2c-1.2-1.2-3.4-3.8-4.7-5.1c-1.3-1.3-3.6-3.3-5.1-4.9c-1.5-1.5-5.5-5.4-8-7.9l-0.9,0.8c4.3,4.2,6.9,5.9,8.6,7.6C160.6,52.9,163.4,55.6,164.4,56.6z M174.1,73.4c3,3,15.7,14.5,15.7,14.5s-8.7-8.3-13.1-12.7c-4.4-4.4-9.8-10-15.1-15.3c-4.4-4.4-11.5-11.6-13.8-13.9l-0.7,0.7c3,2.8,12.7,12,15.5,14.9C166.1,64.9,171,70.3,174.1,73.4z M238.5,132.8c-3.1-3.1-6.3-5.9-9-8.7c-2.8-2.8-10.8-11.1-10.8-11.1s8.2,9.3,11.2,12.3c3,3,5.2,4.5,8.8,8.1c3.6,3.6,9.1,9.3,11.2,11.4c1.7,1.7,5.6,4.8,7,5.9c0.1-0.1,0.3-0.3,0.4-0.4c-1.8-1.6-7.5-6.5-10-9C244.3,138.4,241.6,136,238.5,132.8z M249.3,136c-1.9-1.9-7.5-7.5-8.6-8.6s-5.3-4.4-5.3-4.4s2.9,3.1,3.7,3.9c0.8,0.8,5.2,4.4,8.4,7.7c2.8,2.8,10.3,10.4,12.4,12.5c0.3-0.4,0.5-0.8,0.7-1.1C258.5,144.2,251,137.6,249.3,136z M170.9,65.8c-3.4-3.5-7.6-8.1-9.1-9.6c-3.4-3.4-10.1-9.2-12.5-11.6l-0.4,0.4l-0.1,0.1c2.5,2.4,9.8,9.3,14.4,13.9C166.2,61.9,170.9,65.8,170.9,65.8z M168.1,64.4c3.7,3.7,31.2,30.6,34.7,34.1c3.5,3.5,7.5,7.9,9.6,9.9c2.1,2.1,7.8,8,7.8,8s-7.7-8.7-12.2-13.2c-4.5-4.5-15.4-15.8-20.5-20.9C183.8,78.7,168.1,64.4,168.1,64.4z"/>
<linearGradient id="SVGID_7_" gradientUnits="userSpaceOnUse" x1="308.3491" y1="-630.8247" x2="296.2579" y2="-642.916" gradientTransform="matrix(1 0 0 -1 -101 -537.5)">
<stop offset="0.5165" style="stop-color:#2D2713"/>
<stop offset="0.8626" style="stop-color:#20190F"/>
</linearGradient>
<path fill="url(#SVGID_7_)" d="M212.6,120c-5.1-5.1-14.9-14.4-19.2-18.7c-0.7-0.7-9.3-9.2-11.2-11c-1.8-1.8-17.8-16.3-20.7-19.2c-2.9-2.9-6.3-6.9-7.5-8.2c-1.2-1.2-3.6-4-4.9-5.3c-1.3-1.3-3.4-3.5-4.9-5.1c-0.5-0.5-0.9-0.8-1.2-0.9l-0.2,0.2c0.1,0.2,0.4,0.7,1,1.3c1.7,1.7,3.9,4.4,4.9,5.4c1,1,4.3,4.2,6.3,6.2c2,2,5.8,6.3,6.8,7.3c4.1,4.1,7.4,6.3,12.3,11.2c4.9,4.9,16.5,16.6,18.9,19c4.1,4.1,10,9.2,12.9,12c2.9,2.9,9.3,9.7,12.6,12.9c3.3,3.3,7.6,7.8,10.5,10.7c2.9,2.9,10.8,10.3,10.8,10.3c-12-12.2-11.6-12.6-15.8-16.8C219.5,126.7,215.4,122.8,212.6,120z M239.2,141.4c-4.1-4.1-7.2-7.4-11.5-11.7c-4.3-4.3-9.2-8.9-13-12.7c-3.8-3.8-14.8-14.4-14.8-14.4s10.9,11.4,15,15.5c4.2,4.1,7.5,7.5,12.4,12.4c5,4.9,12.4,12.7,15.4,15.6c2.5,2.5,9.5,8.8,9.5,8.8l1.1-0.9C253.4,154.1,245.4,147.5,239.2,141.4z M156.8,63.7c3.6,3.8,26.1,24.6,29.3,28c3.2,3.5,17.8,17,17.8,17S194.1,99,189.4,94c-4.7-5-22.5-20.6-28.1-26.6c-5.6-6-15.4-15.8-15.4-15.8l-0.9,0.7C145,52.3,153.3,59.9,156.8,63.7z M246.3,154.3c-2.7-2.9-5.4-5.1-5.4-5.1s3.2,4.2,4.7,5.5c1,0.9,2.1,2,2.8,2.7c0.3-0.1,0.6-0.2,0.9-0.4C248.7,156.6,247.7,155.8,246.3,154.3z M187.4,85.6C187.4,85.6,187.3,85.6,187.4,85.6c1.4,1.4,2.4,2.3,2.4,2.3S188.9,87,187.4,85.6z M197.7,96.8c0-0.3-0.1-0.5,0-0.8c-3.4-2.9-8-6.7-11.7-9.9c-0.2,0-0.3,0.1-0.5,0.1c1.4,1.3,2.5,2.3,3.2,2.8C190.9,90.8,194.3,93.7,197.7,96.8z M198.4,93.4c-3.1-3.1-6.2-6.3-8.7-8.8c-0.3,0.1-0.5,0.2-0.7,0.3c3.4,3.4,6.7,6.5,9.2,9C198.2,93.8,198.3,93.6,198.4,93.4z M160.1,46.1c-2.8-2.8-5.1-5.1-5.9-5.9l0,0c0.8,0.9,3,3.3,5.6,6.2C159.9,46.2,160,46.1,160.1,46.1z M199.6,91.5c-1.1-1.1-2-2.1-2.5-2.6c-0.6-0.6-2.6-2.7-5.3-5.3c-0.1,0.1-0.2,0.1-0.3,0.2c2.3,2.3,5.1,5.2,7.9,8.1C199.4,91.7,199.5,91.6,199.6,91.5z M154.7,52.9c-2.8-2.9-5.5-5.5-6.7-6.8c-0.2,0.3-0.4,0.5-0.6,0.8c1.4,1.4,4.2,4,7.1,6.8C154.5,53.4,154.6,53.1,154.7,52.9z M157.2,48.7c-1.8-1.8-4.3-4.2-6-5.9l-0.8,0.8l0,0c2.8,2.7,4.8,4.4,6.4,5.7C156.9,49.1,157,48.9,157.2,48.7z M154.3,55.1c-3.7-3.5-6.4-6.1-7.7-7.3c-0.2,0.2-0.3,0.4-0.4,0.5c1.4,1.4,4.6,4.4,8.2,7.8C154.3,55.9,154.3,55.5,154.3,55.1z M155.5,51.2c0.1-0.2,0.3-0.4,0.4-0.6c-2.6-2.4-5.2-4.7-6.5-6l-0.3,0.3c-0.1,0.1-0.1,0.1-0.2,0.2c1.3,1.2,3.8,3.6,6.5,6.2C155.4,51.2,155.4,51.2,155.5,51.2z"/>
<path d="M155.5,0c0,0,4.2,3,10.9,9.7l0,0c6.7,6.7,9.7,10.9,9.7,10.9v3.7L128.3,72h-3.7l0,0c0,0-5.6-4.4-10.9-9.7l0,0c-6.7-6.7-9.7-10.9-9.7-10.9v-3.7L151.7,0H155.5z"/>
<linearGradient id="SVGID_10_" gradientUnits="userSpaceOnUse" x1="230.2891" y1="-562.7852" x2="251.7136" y2="-584.2097" gradientTransform="matrix(1 0 0 -1 -101 -537.5)">
<stop offset="0" style="stop-color:#FFFFFF"/>
<stop offset="1" style="stop-color:#666666"/>
</linearGradient>
<path fill="url(#SVGID_10_)" d="M154.8,2h-2.3L106,48.6v2.3c0,0,2.5,3.5,9.1,10.1c6.6,6.6,10.1,9.1,10.1,9.1h2.3L174,23.4v-2.3c0,0-2.5-3.5-9.1-10.1C158.3,4.5,154.8,2,154.8,2z"/>
<linearGradient id="SVGID_12_" gradientUnits="userSpaceOnUse" x1="230.2891" y1="-562.7852" x2="251.7136" y2="-584.2097" gradientTransform="matrix(1 0 0 -1 -101 -537.5)">
<stop offset="0" style="stop-color:#FFFFFF"/>
<stop offset="1" style="stop-color:#666666"/>
</linearGradient>
<path fill="url(#SVGID_12_)" d="M154.8,2h-2.3L106,48.6v2.3c0,0,2.5,3.5,9.1,10.1c6.6,6.6,10.1,9.1,10.1,9.1h2.3L174,23.4v-2.3c0,0-2.5-3.5-9.1-10.1C158.3,4.5,154.8,2,154.8,2z"/>
<linearGradient id="SVGID_14_" gradientUnits="userSpaceOnUse" x1="217.0454" y1="-597.4487" x2="264.7599" y2="-549.7342" gradientTransform="matrix(1 0 0 -1 -101 -537.5)">
<stop offset="7.690000e-02" style="stop-color:#0A0A0A"/>
<stop offset="0.533" style="stop-color:#0F0F0F"/>
<stop offset="0.9121" style="stop-color:#191919"/>
</linearGradient>
<path fill="url(#SVGID_14_)" d="M172.3,22.8c0,0-13.1,13.9-22.3,23.2c-9.2,9.2-23.2,22.3-23.2,22.3s-5.1-2.7-10.8-8.3c-5.7-5.7-8.3-10.8-8.3-10.8S120.8,35.3,130,26c9.2-9.2,23.2-22.3,23.2-22.3s4.9,2.9,10.6,8.5C169.4,17.9,172.3,22.8,172.3,22.8z"/>
<linearGradient id="SVGID_16_" gradientUnits="userSpaceOnUse" x1="206.4546" y1="-586.6196" x2="227.8791" y2="-608.0441" gradientTransform="matrix(1 0 0 -1 -101 -537.5)">
<stop offset="0" style="stop-color:#999999"/>
<stop offset="1" style="stop-color:#1A1A1A"/>
</linearGradient>
<path fill="url(#SVGID_16_)" d="M126.8,68.3c0,0-5.1-2.7-10.8-8.3c-5.7-5.7-8.3-10.8-8.3-10.8l-1.7-0.6v2.3c0,0,2.5,3.5,9.1,10.1c6.6,6.6,10.1,9.1,10.1,9.1h2.3L126.8,68.3z"/>
<linearGradient id="SVGID_18_" gradientUnits="userSpaceOnUse" x1="254.1211" y1="-538.9531" x2="275.5442" y2="-560.3762" gradientTransform="matrix(1 0 0 -1 -101 -537.5)">
<stop offset="0" style="stop-color:#CCCCCC"/>
<stop offset="1" style="stop-color:#333333"/>
</linearGradient>
<path fill="url(#SVGID_18_)" d="M174,23.4v-2.3c0,0-2.5-3.5-9.1-10.1C158.3,4.5,154.8,2,154.8,2h-2.3l0.6,1.7c0,0,4.9,2.9,10.6,8.5c5.7,5.7,8.5,10.6,8.5,10.6L174,23.4z"/>
<path fill="#494949" d="M137.5,37.7l-0.5,0.5l-0.4-0.4l1.5-1.5l0.4,0.4l-0.5,0.5l2.8,2.8l-0.5,0.5L137.5,37.7z"/>
<path fill="#494949" d="M140.3,37.1l-2.2-0.9l0.5-0.5l1.3,0.6l-0.6-1.3l0.5-0.5l0.9,2.2l2.4,1l-0.5,0.5l-1.5-0.7l0.7,1.5l-0.5,0.5L140.3,37.1z"/>
<path fill="#494949" d="M140.1,34.2l0.7-0.7c0.3-0.3,0.5-0.4,0.8-0.4c0.3,0,0.6,0.2,1,0.6c0.3,0.3,0.5,0.5,0.5,0.8c0.1,0.3,0,0.7-0.3,1l-0.2,0.2l1.3,1.3l-0.5,0.5L140.1,34.2z M142.1,35.2l0.2-0.2c0.4-0.4,0.2-0.6-0.2-0.9c-0.3-0.3-0.6-0.6-0.9-0.2l-0.2,0.2L142.1,35.2z"/>
<path fill="#191919" d="M137.5,37.3l-0.5,0.5l-0.4-0.4l1.5-1.6l0.4,0.4l-0.5,0.5l2.8,2.8l-0.5,0.5L137.5,37.3z"/>
<path fill="#191919" d="M140.3,36.7l-2.2-0.9l0.5-0.5l1.3,0.6l-0.6-1.3l0.5-0.5l0.9,2.2l2.4,1l-0.5,0.5l-1.5-0.7l0.7,1.5l-0.5,0.5L140.3,36.7z"/>
<path fill="#191919" d="M140.1,33.8l0.7-0.7c0.3-0.3,0.5-0.4,0.8-0.4c0.3,0,0.6,0.2,1,0.6c0.3,0.3,0.5,0.5,0.5,0.8c0.1,0.3,0,0.7-0.3,1l-0.2,0.2l1.3,1.3l-0.5,0.5L140.1,33.8z M142.1,34.8l0.2-0.2c0.4-0.4,0.2-0.6-0.2-0.9c-0.3-0.3-0.6-0.6-0.9-0.2l-0.2,0.2L142.1,34.8z"/>
<path fill="#2D2D2D" d="M137.5,37.5l-0.5,0.5l-0.4-0.4L138,36l0.4,0.4l-0.5,0.5l2.8,2.8l-0.5,0.5L137.5,37.5z"/>
<path fill="#2D2D2D" d="M140.3,36.9l-2.2-0.9l0.5-0.5L140,36l-0.6-1.3l0.5-0.5l0.9,2.2l2.4,1l-0.5,0.5l-1.5-0.7l0.7,1.5l-0.5,0.5L140.3,36.9z"/>
<path fill="#2D2D2D" d="M140.1,34l0.7-0.7c0.3-0.3,0.5-0.4,0.8-0.4c0.3,0,0.6,0.2,1,0.6c0.3,0.3,0.5,0.5,0.5,0.8c0.1,0.3,0,0.7-0.3,1l-0.2,0.2l1.3,1.3l-0.5,0.5L140.1,34z M142.1,35l0.2-0.2c0.4-0.4,0.2-0.6-0.2-0.9c-0.3-0.3-0.6-0.6-0.9-0.2l-0.2,0.2L142.1,35z"/>
<path d="M119.9,151.6L119.9,151.6c-4.4-4.4-7.9-9.9-7.9-9.9l4.3-4.3c0,0,4.5-1.2,7.3-4l0,0l88.9-88.9c5.7-5.7,11.6-18.1,11.6-18.1l15.6-15.6l4.1-2.8L264,28.2l-2.8,4.1l-15.6,15.6c0,0-12.5,5.9-18.1,11.6l0,0l-88.9,88.9c-2.7,2.7-4,7.3-4,7.3l-4.3,4.3C130.3,160,124.3,156.1,119.9,151.6z"/>
<linearGradient id="SVGID_30_" gradientUnits="userSpaceOnUse" x1="314.6328" y1="-572.8325" x2="360.7041" y2="-572.8325" gradientTransform="matrix(1 0 0 -1 -101 -537.5)">
<stop offset="0.125" style="stop-color:#CCCCC9"/>
<stop offset="0.875" style="stop-color:#A19DA0"/>
</linearGradient>
<path fill="url(#SVGID_30_)" d="M241,12.3L241,12.3l-15.1,15.1c0,0-3.6,15.6-9.3,21.3l-3,3l6.7,6.7l3-3c5.7-5.7,21.3-9.3,21.3-9.3L259.7,31l0,0L241,12.3z"/>
<path fill="#616161" d="M220.3,58.4l2.7,2.7l3-3c5.7-5.7,18.6-12,18.6-12s-15.6,3.5-21.3,9.3L220.3,58.4z"/>
<path fill="#EAE8E8" d="M210.9,48.9l2.7,2.7l3-3c5.7-5.7,9.3-21.3,9.3-21.3s-6.3,12.8-12,18.6L210.9,48.9z"/>
<path fill="#FECC3B" d="M213.8,51.5l-86.1,86.1c-3.3,3.3-7.1,4.9-7.1,4.9l8.9,8.9h0c0,0,1.6-3.8,4.9-7.1l86.1-86.1L213.8,51.5z"/>
<path fill="#BFBFBF" d="M114.6,142c0,0,3.7,5.2,6.7,8.3c3,3,8.7,7.2,8.7,7.2L114.6,142z"/>
<polygon fill="#EAE8E8" points="259.7,31 261.4,28.5 243.5,10.6 241,12.3"/>
<path fill="#B89B0C" d="M134.9,135.6l-0.4,0.4l-0.3-0.3l1.2-1.2l0.3,0.3l-0.4,0.4l2.1,2.1l-0.4,0.4L134.9,135.6z"/>
<path fill="#B89B0C" d="M135.7,134.2l1.1-1.1l0.3,0.3l-0.7,0.7l0.7,0.7l0.6-0.6l0.3,0.3l-0.6,0.6l0.7,0.7l0.7-0.7l0.4,0.4l-1.1,1.1L135.7,134.2z"/>
<path fill="#B89B0C" d="M138.7,133.5l-1.6-0.7l0.4-0.4l1,0.5l-0.5-1l0.4-0.4l0.7,1.7l1.8,0.8l-0.4,0.4l-1.1-0.5l0.5,1.1l-0.4,0.4L138.7,133.5z"/>
<path fill="#B89B0C" d="M139.3,131.2l-0.4,0.4l-0.3-0.3l1.2-1.2l0.3,0.3l-0.4,0.4l2.1,2.1l-0.4,0.4L139.3,131.2z"/>
<path fill="#B89B0C" d="M140.1,129.7l0.5-0.5c0.2-0.2,0.4-0.3,0.6-0.3c0.2,0,0.4,0.1,0.7,0.4c0.2,0.2,0.3,0.4,0.4,0.6c0.1,0.3,0,0.5-0.3,0.8l-0.2,0.2l1,1l-0.4,0.4L140.1,129.7z M141.7,130.6l0.2-0.2c0.3-0.3,0.1-0.5-0.1-0.7c-0.2-0.2-0.4-0.4-0.7-0.1l-0.2,0.2L141.7,130.6z"/>
<path fill="#B89B0C" d="M142,127.9l0.3-0.3l3,1.9l-0.4,0.4l-0.6-0.4l-0.5,0.5l0.4,0.6l-0.4,0.4L142,127.9z M142.9,128.4L142.9,128.4l0.7,1.1l0.4-0.4L142.9,128.4z"/>
<path fill="#B89B0C" d="M143.6,126.9l-0.4,0.4l-0.3-0.3l1.2-1.2l0.3,0.3l-0.4,0.4l2.1,2.1l-0.4,0.4L143.6,126.9z"/>
<path fill="#B89B0C" d="M145,125.6l-0.4,0.4l-0.3-0.3l1.2-1.2l0.3,0.3l-0.4,0.4l2.1,2.1l-0.4,0.4L145,125.6z"/>
<path fill="#B89B0C" d="M145.8,124.1l1.1-1.1l0.3,0.3l-0.7,0.7l0.7,0.7l0.6-0.6l0.3,0.3l-0.6,0.6l0.7,0.7l0.7-0.7l0.4,0.4l-1.1,1.1L145.8,124.1z"/>
<path fill="#B89B0C" d="M147.3,122.6l0.6-0.6c0.4-0.4,0.9-0.4,1.4,0.1c0.3,0.3,0.4,0.6,0.3,0.9l1.5,0.7l-0.4,0.4l-1.4-0.7l-0.2,0.2l1.1,1.1l-0.4,0.4L147.3,122.6z M148.7,123.3l0.2-0.2c0.2-0.2,0.1-0.4-0.1-0.7c-0.3-0.2-0.4-0.3-0.7-0.1l-0.2,0.2L148.7,123.3z"/>
<path fill="#B89B0C" d="M149,120.9l0.3-0.3l2,1l0,0l-1.5-1.5l0.4-0.4l2.5,2.5l-0.3,0.3l-2-0.9l0,0l1.5,1.5l-0.4,0.4L149,120.9z"/>
<path fill="#EDD84E" d="M134.9,135.9l-0.4,0.4l-0.3-0.3l1.2-1.2l0.3,0.3l-0.4,0.4l2.1,2.1l-0.4,0.4L134.9,135.9z"/>
<path fill="#EDD84E" d="M135.7,134.5l1.1-1.1l0.3,0.3l-0.7,0.7l0.7,0.7l0.6-0.6l0.3,0.3l-0.6,0.6l0.7,0.7l0.7-0.7l0.4,0.4l-1.1,1.1L135.7,134.5z"/>
<path fill="#EDD84E" d="M138.7,133.8l-1.6-0.7l0.4-0.4l1,0.5l-0.5-1l0.4-0.4l0.7,1.7l1.8,0.8l-0.4,0.4l-1.1-0.5l0.5,1.1l-0.4,0.4L138.7,133.8z"/>
<path fill="#EDD84E" d="M139.3,131.5l-0.4,0.4l-0.3-0.3l1.2-1.2l0.3,0.3l-0.4,0.4l2.1,2.1l-0.4,0.4L139.3,131.5z"/>
<path fill="#EDD84E" d="M140.1,130.1l0.5-0.5c0.2-0.2,0.4-0.3,0.6-0.3s0.4,0.1,0.7,0.4c0.2,0.2,0.3,0.4,0.4,0.6c0.1,0.3,0,0.5-0.3,0.8l-0.2,0.2l1,1l-0.4,0.4L140.1,130.1z M141.7,130.9l0.2-0.2c0.3-0.3,0.1-0.5-0.1-0.7c-0.2-0.2-0.4-0.4-0.7-0.1l-0.2,0.2L141.7,130.9z"/>
<path fill="#EDD84E" d="M142,128.2l0.3-0.3l3,1.9l-0.4,0.4l-0.6-0.4l-0.5,0.5l0.4,0.6l-0.4,0.4L142,128.2z M142.9,128.7L142.9,128.7l0.7,1.1l0.4-0.4L142.9,128.7z"/>
<path fill="#EDD84E" d="M143.6,127.2l-0.4,0.4l-0.3-0.3l1.2-1.2l0.3,0.3l-0.4,0.4l2.1,2.1l-0.4,0.4L143.6,127.2z"/>
<path fill="#EDD84E" d="M145,125.9l-0.4,0.4l-0.3-0.3l1.2-1.2l0.3,0.3l-0.4,0.4l2.1,2.1l-0.4,0.4L145,125.9z"/>
<path fill="#EDD84E" d="M145.8,124.4l1.1-1.1l0.3,0.3l-0.7,0.7l0.7,0.7l0.6-0.6l0.3,0.3l-0.6,0.6l0.7,0.7l0.7-0.7l0.4,0.4l-1.1,1.1L145.8,124.4z"/>
<path fill="#EDD84E" d="M147.3,122.9l0.6-0.6c0.4-0.4,0.9-0.4,1.4,0.1c0.3,0.3,0.4,0.6,0.3,0.9l1.5,0.7l-0.4,0.4l-1.4-0.7L149,124l1.1,1.1l-0.4,0.4L147.3,122.9z M148.7,123.7l0.2-0.2c0.2-0.2,0.1-0.4-0.1-0.7c-0.3-0.2-0.4-0.3-0.7-0.1l-0.2,0.2L148.7,123.7z"/>
<path fill="#EDD84E" d="M149,121.2l0.3-0.3l2,1l0,0l-1.5-1.5l0.4-0.4l2.5,2.5l-0.3,0.3l-2-0.9l0,0l1.5,1.5l-0.4,0.4L149,121.2z"/>
<path fill="#FBC136" d="M134.9,135.8l-0.4,0.4l-0.3-0.3l1.2-1.2l0.3,0.3l-0.4,0.4l2.1,2.1l-0.4,0.4L134.9,135.8z"/>
<path fill="#FBC136" d="M135.7,134.3l1.1-1.1l0.3,0.3l-0.7,0.7l0.7,0.7l0.6-0.6l0.3,0.3l-0.6,0.6l0.7,0.7l0.7-0.7l0.4,0.4l-1.1,1.1L135.7,134.3z"/>
<path fill="#FBC136" d="M138.7,133.7l-1.6-0.7l0.4-0.4l1,0.5l-0.5-1l0.4-0.4l0.7,1.6l1.8,0.8l-0.4,0.4l-1.1-0.5l0.5,1.1l-0.4,0.4L138.7,133.7z"/>
<path fill="#FBC136" d="M139.3,131.4l-0.4,0.4l-0.3-0.3l1.2-1.2l0.3,0.3l-0.4,0.4l2.1,2.1l-0.4,0.4L139.3,131.4z"/>
<path fill="#FBC136" d="M140.1,129.9l0.5-0.5c0.2-0.2,0.4-0.3,0.6-0.3c0.2,0,0.4,0.1,0.7,0.4c0.2,0.2,0.3,0.4,0.4,0.6c0.1,0.3,0,0.5-0.3,0.8l-0.2,0.2l1,1l-0.4,0.4L140.1,129.9z M141.7,130.7l0.2-0.2c0.3-0.3,0.1-0.5-0.1-0.7c-0.2-0.2-0.4-0.4-0.7-0.1l-0.2,0.2L141.7,130.7z"/>
<path fill="#FBC136" d="M142,128l0.3-0.3l3,1.9L145,130l-0.6-0.4l-0.5,0.5l0.4,0.6l-0.4,0.4L142,128z M142.9,128.6L142.9,128.6l0.7,1.1l0.4-0.4L142.9,128.6z"/>
<path fill="#FBC136" d="M143.6,127.1l-0.4,0.4l-0.3-0.3l1.2-1.2l0.3,0.3l-0.4,0.4l2.1,2.1l-0.4,0.4L143.6,127.1z"/>
<path fill="#FBC136" d="M145,125.7l-0.4,0.4l-0.3-0.3l1.2-1.2l0.3,0.3l-0.4,0.4l2.1,2.1l-0.4,0.4L145,125.7z"/>
<path fill="#FBC136" d="M145.8,124.3l1.1-1.1l0.3,0.3l-0.7,0.7l0.7,0.7l0.6-0.6l0.3,0.3l-0.6,0.6l0.7,0.7l0.7-0.7l0.4,0.4l-1.1,1.1L145.8,124.3z"/>
<path fill="#FBC136" d="M147.3,122.8l0.6-0.6c0.4-0.4,0.9-0.4,1.4,0.1c0.3,0.3,0.4,0.6,0.3,0.9l1.5,0.8l-0.4,0.4l-1.4-0.7l-0.2,0.2l1.1,1.1l-0.4,0.4L147.3,122.8z M148.7,123.5l0.2-0.2c0.2-0.2,0.1-0.4-0.1-0.7c-0.3-0.2-0.4-0.3-0.7-0.1l-0.2,0.2L148.7,123.5z"/>
<path fill="#FBC136" d="M149,121.1l0.3-0.3l2,1l0,0l-1.5-1.5l0.4-0.4l2.5,2.5l-0.3,0.3l-2-0.9l0,0l1.5,1.5l-0.4,0.4L149,121.1z"/>
<rect x="127.8" y="152.1" transform="matrix(0.7074 -0.7069 0.7069 0.7074 -71.1463 136.9067)" fill="#3D2915" width="3.9" height="4.6"/>
<rect x="115.3" y="140.3" transform="matrix(-0.7068 -0.7074 0.7074 -0.7068 100.1493 325.9723)" fill="#E3D8AD" width="4.6" height="3.9"/>
<rect x="121.8" y="142" transform="matrix(-0.7072 0.707 -0.707 -0.7072 316.0255 165.7434)" fill="#FBC136" width="3.9" height="12.5"/>
<path fill="#4A3218" d="M223.2,60.9l-2.7-2.7l-86.1,86.1c-3.3,3.3-4.9,7.1-4.9,7.1l3.3,3.3c0,0,1.1-4.4,4.4-7.6L223.2,60.9z"/>
<path fill="#ECE4B1" d="M211.1,48.8L125,134.9c-3.3,3.3-7.6,4.4-7.6,4.4l3.3,3.3c0,0,3.8-1.6,7.1-4.9l86.1-86.1L211.1,48.8z"/>
<path d="M42.6,189.9c0.1-1,0.3-2,0.3-3.2l0.2-3.5c0.1-1.2,0.1-2.4,0.2-3.5c0-1.1,0.1-2.2,0.1-3.1v-0.5L0,176v1c0,0.9,0,1.5,0.1,2.7c0,1.2,0.1,2.3,0.2,3.5c0.1,1.2,0.2,2.4,0.3,3.5c0.1,1.2,0.2,2.2,0.4,3.1l0.1,0.4h2.6l3.9-9.7h10.3l0,39.8c-1.1,0.2-2.2,0.4-3.2,0.6c-1.1,0.3-2.2,0.6-3.3,1l-0.3,0.1v2.8h21.5v-2.8l-0.3-0.1c-1-0.4-2.1-0.7-3.3-1c-1-0.2-2-0.4-3.1-0.6l0-39.9H36l3.8,9.7h2.7L42.6,189.9z"/>
<path d="M69.2,191.6c-1.3-1-2.9-1.8-4.6-2.2c-1.7-0.4-3.4-0.7-5.2-0.7c-5.4,0-9.6,1.6-12.6,4.7c-2.9,3.1-4.4,7.7-4.4,13.6c0,2.8,0.4,5.3,1.2,7.5c0.8,2.2,1.9,4.2,3.4,5.8c1.5,1.6,3.4,2.9,5.7,3.7c2.2,0.9,4.9,1.3,7.8,1.3c1.3,0,2.7-0.2,4-0.5c1.3-0.3,2.5-0.7,3.6-1.2c1.1-0.5,2.1-1.1,3-1.8c0.9-0.7,1.5-1.5,2-2.3l0.2-0.3l-1.6-1.7l-0.4,0.3c-0.8,0.7-2.1,1.2-3.7,1.7c-1.7,0.4-3.4,0.7-5.1,0.7c-2,0-3.8-0.3-5.3-1c-1.5-0.7-2.7-1.6-3.7-2.7c-1-1.2-1.7-2.6-2.2-4.1c-0.4-1.5-0.7-3-0.7-4.7h22.7l0.1-0.4c0.2-0.9,0.3-1.8,0.4-2.6c0.1-0.8,0.1-1.6,0.1-2.4c0-2.5-0.4-4.6-1.3-6.4C71.7,194,70.6,192.6,69.2,191.6z M59.2,192.7c2.3,0,4,0.8,5.1,2.4c1.1,1.6,1.7,3.9,1.7,6.6c0,0.4,0,0.7,0,1.1c0,0.2,0,0.5-0.1,0.7H50.7c0.3-4,1.1-6.8,2.5-8.4C54.6,193.5,56.5,192.7,59.2,192.7z"/>
<path d="M110.9,221.4c-0.6-0.2-1.2-0.5-1.9-0.7l-11.2-14.4l9.7-11.9c1.8-0.5,3.1-1,4.1-1.6l0.2-0.1v-2.5H98.6v2.5l0.2,0.1c0.7,0.5,1.8,1,3.1,1.5l-6.6,9.1l-6.8-9.1c0.4-0.2,0.9-0.3,1.3-0.5c0.6-0.3,1.2-0.6,1.7-1l0.2-0.1v-2.5H76.1v2.5l0.2,0.1c0.6,0.4,1.2,0.7,1.8,0.9c0.5,0.2,1.1,0.5,1.8,0.7l10.6,13.3L80,220.7c-1.3,0.3-2.7,0.9-4.1,1.6l-0.3,0.1v2.5h13.5v-2.5l-0.3-0.1c-0.6-0.3-1.2-0.6-1.8-0.9c-0.4-0.2-0.8-0.4-1.3-0.5l7.4-10l7.3,10c-0.4,0.1-0.8,0.3-1.2,0.5c-0.6,0.3-1.2,0.6-1.9,1l-0.3,0.1v2.4h16v-2.5l-0.2-0.1C112.3,222,111.6,221.7,110.9,221.4z"/>
<path d="M138.8,219.2c-0.9,0.3-2,0.5-3.2,0.6c-1.3,0.1-2.4,0.2-3.2,0.2c-1.7,0-2.9-0.5-3.8-1.5c-0.8-1-1.3-2.9-1.3-5.4V194h11v-4.5h-11v-8.9H125l-0.2,0c-0.8,0.4-1.7,0.7-2.5,1.1c-0.9,0.4-1.7,0.9-2.3,1.4l-0.2,0.1v5.6c-1.9,0.5-3.8,1.3-5.6,2.4l-0.2,0.1v2.6h5.8v21c0,3.5,0.8,6.2,2.4,7.8c1.6,1.6,4,2.4,7,2.4c1.2,0,2.3-0.1,3.4-0.4c1.1-0.3,2.1-0.6,3-1c0.9-0.4,1.8-0.9,2.5-1.3c0.7-0.5,1.3-0.9,1.7-1.4l0.2-0.3l-0.9-1.7L138.8,219.2z"/>
<path d="M165,188.7c-2.9,0-5.3,0.7-7.2,2.2c-1.3,1-2.5,2.4-3.4,3.9v-6.1l-2.4,0c-1.6,0.2-3.2,0.5-4.8,0.9c-1.7,0.4-3.3,0.9-4.9,1.5l-0.3,0.1v2.5l4.8,0.5v39.4c-1.5,0.4-3,0.9-4.5,1.6l-0.3,0.1v2.5h17.2v-2.5l-0.3-0.1c-0.9-0.5-1.8-0.9-2.6-1.2c-0.7-0.2-1.3-0.4-2-0.5v-9.6c1,0.4,1.9,0.6,2.8,0.8c1,0.2,2.5,0.3,4.3,0.3c2.6,0,5.1-0.4,7.2-1.3c2.2-0.9,4-2.2,5.6-3.8c1.5-1.6,2.7-3.6,3.5-6c0.8-2.4,1.2-5,1.2-7.9c0-6.1-1.2-10.6-3.7-13.4C173,190.1,169.5,188.7,165,188.7z M171.2,206.2c0,2.2-0.2,4.3-0.7,6.1c-0.5,1.8-1.2,3.4-2,4.8c-0.9,1.3-1.9,2.4-3.1,3.1c-1.2,0.7-2.6,1.1-4.1,1.1c-1.7,0-3.1-0.1-4.2-0.4c-0.9-0.2-1.8-0.5-2.6-0.9v-18.6c0.6-2.3,1.5-4.2,2.8-5.5c1.3-1.3,3.1-2,5.3-2c1.6,0,2.9,0.3,4,0.9c1.1,0.6,1.9,1.4,2.6,2.5c0.7,1.1,1.2,2.4,1.5,3.9C171,202.7,171.2,204.4,171.2,206.2z"/>
<path d="M212.2,217.6c0-0.7-0.1-1.6-0.1-2.5c0-2.3,0.1-4.7,0.2-7.2c0.1-2.5,0.2-5.2,0.2-7.9c0-1.3-0.1-2.6-0.4-3.9c-0.3-1.3-0.8-2.6-1.6-3.7c-0.8-1.1-2-2-3.6-2.7c-1.5-0.7-3.6-1-6.2-1c-2.8,0-5.4,0.3-7.7,0.9c-2.3,0.6-4.4,1.4-6.3,2.5l-0.3,0.2l0,0.3c0.1,1.4,0.3,2.9,0.7,4.4c0.4,1.5,0.8,2.9,1.3,4.3l0.1,0.3h2.6l3.5-8.2c0.7-0.3,1.4-0.4,2.2-0.5c0.8-0.1,1.6-0.1,2.3-0.1c1.3,0,2.4,0.3,3.3,0.8s1.4,1.3,1.9,2.4c0.4,1.1,0.7,2.3,0.8,3.8c0.1,1.4,0,3-0.1,4.8c-3.2,0.2-6.1,0.4-8.6,0.8c-2.6,0.3-4.8,0.9-6.6,1.7c-1.8,0.8-3.2,1.9-4.2,3.3c-1,1.4-1.4,3.2-1.4,5.4c0,2.9,1,5.2,3,7c2,1.8,4.5,2.6,7.6,2.6c1.6,0,3.1-0.2,4.3-0.7c1.3-0.5,2.4-1.1,3.3-1.8c0.9-0.8,1.7-1.6,2.3-2.6c0.2-0.4,0.5-0.8,0.6-1.2c0,0.8,0.1,1.6,0.1,2.4c0.1,1.3,0.4,2.5,0.9,3.6l0.1,0.3l2.2,0c1.4-0.2,2.8-0.6,4.3-1c1.5-0.5,2.9-1,4.1-1.6l0.3-0.1v-2.2l-5.1-0.7C212.3,218.8,212.2,218.2,212.2,217.6z M202.7,217.9c-0.6,0.6-1.3,1.1-2.2,1.5c-0.9,0.4-1.9,0.6-3,0.6c-1.7,0-3-0.5-4-1.5c-1-1-1.5-2.4-1.5-4.2c0-1.1,0.2-2,0.5-2.8c0.3-0.8,1-1.4,1.9-2c1-0.6,2.3-1,4.1-1.2c1.7-0.2,3.8-0.4,6.4-0.4v6.5c-0.1,0.4-0.4,0.9-0.7,1.5C203.8,216.7,203.3,217.3,202.7,217.9z"/>
<path d="M244.1,219.2c-0.9,0.3-2,0.5-3.2,0.6c-1.3,0.1-2.4,0.2-3.2,0.2c-1.7,0-2.9-0.5-3.8-1.5c-0.8-1-1.3-2.9-1.3-5.4V194h11v-4.5h-11v-8.9h-2.3l-0.2,0c-0.8,0.4-1.7,0.7-2.5,1.1c-0.9,0.4-1.7,0.9-2.3,1.4l-0.2,0.1v5.6c-1.9,0.5-3.8,1.3-5.6,2.4l-0.2,0.1v2.6h5.8v21c0,3.5,0.8,6.2,2.4,7.8c1.6,1.6,4,2.4,7,2.4c1.2,0,2.3-0.1,3.4-0.4c1.1-0.3,2.1-0.6,3-1c0.9-0.4,1.8-0.9,2.5-1.3c0.7-0.5,1.3-0.9,1.7-1.4l0.2-0.3l-0.9-1.7L244.1,219.2z"/>
<path d="M271.1,219.2c-0.9,0.3-2,0.5-3.2,0.6c-1.3,0.1-2.4,0.2-3.2,0.2c-1.7,0-2.9-0.5-3.8-1.5c-0.8-1-1.3-2.9-1.3-5.4V194h11v-4.5h-11v-8.9h-2.3l-0.2,0c-0.8,0.4-1.7,0.7-2.5,1.1c-0.9,0.4-1.7,0.9-2.3,1.4l-0.2,0.1v5.6c-1.9,0.5-3.8,1.3-5.6,2.4l-0.2,0.1v2.6h5.8v21c0,3.5,0.8,6.2,2.4,7.8c1.6,1.6,4,2.4,7,2.4c1.2,0,2.3-0.1,3.4-0.4c1.1-0.3,2.1-0.6,3-1c0.9-0.4,1.8-0.9,2.5-1.3c0.7-0.5,1.3-0.9,1.7-1.4l0.2-0.3l-0.9-1.7L271.1,219.2z"/>
<path d="M301.9,191.6c-1.3-1-2.9-1.8-4.6-2.2c-1.7-0.4-3.4-0.7-5.2-0.7c-5.4,0-9.6,1.6-12.6,4.7c-2.9,3.1-4.4,7.7-4.4,13.6c0,2.8,0.4,5.3,1.2,7.5c0.8,2.2,1.9,4.2,3.4,5.8c1.5,1.6,3.4,2.9,5.7,3.7c2.2,0.9,4.9,1.3,7.8,1.3c1.3,0,2.7-0.2,4-0.5c1.3-0.3,2.5-0.7,3.6-1.2c1.1-0.5,2.1-1.1,3-1.8c0.9-0.7,1.5-1.5,2-2.3l0.2-0.3l-1.6-1.7l-0.4,0.3c-0.8,0.7-2.1,1.2-3.7,1.7c-1.7,0.4-3.4,0.7-5.1,0.7c-2,0-3.8-0.3-5.3-1c-1.5-0.7-2.7-1.6-3.7-2.7c-1-1.2-1.7-2.6-2.2-4.1c-0.4-1.5-0.7-3-0.7-4.7h22.7l0.1-0.4c0.2-0.9,0.3-1.8,0.4-2.6c0.1-0.8,0.1-1.6,0.1-2.4c0-2.5-0.4-4.6-1.3-6.4C304.3,194,303.2,192.6,301.9,191.6z M291.8,192.7c2.3,0,4,0.8,5.1,2.4c1.1,1.6,1.7,3.9,1.7,6.6c0,0.4,0,0.7,0,1.1c0,0.2,0,0.5-0.1,0.7h-15.1c0.3-4,1.1-6.8,2.5-8.4C287.2,193.5,289.2,192.7,291.8,192.7z"/>
<path d="M336.2,191.5c-0.3-0.7-0.6-1.4-0.9-2l-0.1-0.2l-0.3,0c-1.4-0.1-2.7,0-4,0.4c-1.3,0.4-2.5,1-3.6,1.7c-1.1,0.7-2,1.6-2.9,2.5c-0.5,0.6-0.9,1.1-1.3,1.7v-6.3l-2.4,0c-1.5,0.2-3.1,0.5-4.8,0.9c-1.7,0.4-3.3,0.9-4.9,1.6l-0.3,0.1v2.5l4.8,0.5v25.8c-0.7,0.2-1.3,0.3-2,0.5c-0.8,0.2-1.7,0.6-2.6,1.1l-0.3,0.1v2.5H329v-2.5l-0.3-0.1c-1-0.5-2-0.9-3-1.2c-0.8-0.2-1.7-0.4-2.5-0.5v-19.6c0.6-1.5,1.3-2.7,2-3.4c0.7-0.7,1.3-1.2,1.8-1.5H337v-2.3l0-0.2C336.8,192.9,336.5,192.2,336.2,191.5z"/>
<path d="M379.8,222.4c-1.2-0.7-2.8-1.3-4.6-1.6V204c0-2.8-0.3-5.2-0.8-7.1c-0.6-1.9-1.4-3.4-2.5-4.6c-1.1-1.1-2.4-2-4.1-2.4c-1.6-0.4-3.4-0.7-5.4-0.7c-2.8,0-5.3,0.8-7.3,2.3c-1.5,1.2-2.7,2.5-3.7,4v-6.3l-2.4,0c-1.8,0.3-3.6,0.7-5.2,1.1c-1.7,0.4-3.2,0.9-4.4,1.4l-0.3,0.1v2.6l4.8,0.5v25.8c-1.8,0.5-3.4,1-4.5,1.6l-0.3,0.1v2.5h16.8v-2.5l-0.2-0.1c-1.3-0.8-2.7-1.3-4.1-1.6v-19.3c0.3-0.9,0.8-1.7,1.3-2.6c0.6-0.8,1.2-1.6,2-2.3c0.8-0.7,1.6-1.2,2.6-1.6c1-0.4,2.1-0.6,3.2-0.6c2.6,0,4.4,0.9,5.4,2.7c1,1.9,1.5,4.6,1.5,7.9v15.7c-1.4,0.4-2.8,1-4,1.6l-0.3,0.1v2.5H380v-2.5L379.8,222.4z"/>
</svg>
