<?xml version="1.0" encoding="utf-8"?>
<!DOCTYPE svg>
<svg version="1.1" baseProfile="full" xmlns="http://www.w3.org/2000/svg" xmlns:xlink="http://www.w3.org/1999/xlink" x="0px" y="0px" width="380px" height="238px" viewBox="0 0 380 238" enable-background="new 0 0 380 238" xml:space="preserve">
<style type="text/css" >
<![CDATA[
g { fill: #ffffff; }
]]>
</style>
<g>
<path d="M42.6,189.9c0.1-1,0.3-2,0.3-3.2l0.2-3.5c0.1-1.2,0.1-2.4,0.2-3.5c0-1.1,0.1-2.2,0.1-3.1v-0.5L0,176v1c0,0.9,0,1.5,0.1,2.7c0,1.2,0.1,2.3,0.2,3.5c0.1,1.2,0.2,2.4,0.3,3.5c0.1,1.2,0.2,2.2,0.4,3.1l0.1,0.4h2.6l3.9-9.7h10.3l0,39.8c-1.1,0.2-2.2,0.4-3.2,0.6c-1.1,0.3-2.2,0.6-3.3,1l-0.3,0.1v2.8h21.5v-2.8l-0.3-0.1c-1-0.4-2.1-0.7-3.3-1c-1-0.2-2-0.4-3.1-0.6l0-39.9H36l3.8,9.7h2.7L42.6,189.9z"/>
<path d="M69.2,191.6c-1.3-1-2.9-1.8-4.6-2.2c-1.7-0.4-3.4-0.7-5.2-0.7c-5.4,0-9.6,1.6-12.6,4.7c-2.9,3.1-4.4,7.7-4.4,13.6c0,2.8,0.4,5.3,1.2,7.5c0.8,2.2,1.9,4.2,3.4,5.8c1.5,1.6,3.4,2.9,5.7,3.7c2.2,0.9,4.9,1.3,7.8,1.3c1.3,0,2.7-0.2,4-0.5c1.3-0.3,2.5-0.7,3.6-1.2c1.1-0.5,2.1-1.1,3-1.8c0.9-0.7,1.5-1.5,2-2.3l0.2-0.3l-1.6-1.7l-0.4,0.3c-0.8,0.7-2.1,1.2-3.7,1.7c-1.7,0.4-3.4,0.7-5.1,0.7c-2,0-3.8-0.3-5.3-1c-1.5-0.7-2.7-1.6-3.7-2.7c-1-1.2-1.7-2.6-2.2-4.1c-0.4-1.5-0.7-3-0.7-4.7h22.7l0.1-0.4c0.2-0.9,0.3-1.8,0.4-2.6c0.1-0.8,0.1-1.6,0.1-2.4c0-2.5-0.4-4.6-1.3-6.4C71.7,194,70.6,192.6,69.2,191.6z M59.2,192.7c2.3,0,4,0.8,5.1,2.4c1.1,1.6,1.7,3.9,1.7,6.6c0,0.4,0,0.7,0,1.1c0,0.2,0,0.5-0.1,0.7H50.7c0.3-4,1.1-6.8,2.5-8.4C54.6,193.5,56.5,192.7,59.2,192.7z"/>
<path d="M110.9,221.4c-0.6-0.2-1.2-0.5-1.9-0.7l-11.2-14.4l9.7-11.9c1.8-0.5,3.1-1,4.1-1.6l0.2-0.1v-2.5H98.6v2.5l0.2,0.1c0.7,0.5,1.8,1,3.1,1.5l-6.6,9.1l-6.8-9.1c0.4-0.2,0.9-0.3,1.3-0.5c0.6-0.3,1.2-0.6,1.7-1l0.2-0.1v-2.5H76.1v2.5l0.2,0.1c0.6,0.4,1.2,0.7,1.8,0.9c0.5,0.2,1.1,0.5,1.8,0.7l10.6,13.3L80,220.7c-1.3,0.3-2.7,0.9-4.1,1.6l-0.3,0.1v2.5h13.5v-2.5l-0.3-0.1c-0.6-0.3-1.2-0.6-1.8-0.9c-0.4-0.2-0.8-0.4-1.3-0.5l7.4-10l7.3,10c-0.4,0.1-0.8,0.3-1.2,0.5c-0.6,0.3-1.2,0.6-1.9,1l-0.3,0.1v2.4h16v-2.5l-0.2-0.1C112.3,222,111.6,221.7,110.9,221.4z"/>
<path d="M138.8,219.2c-0.9,0.3-2,0.5-3.2,0.6c-1.3,0.1-2.4,0.2-3.2,0.2c-1.7,0-2.9-0.5-3.8-1.5c-0.8-1-1.3-2.9-1.3-5.4V194h11v-4.5h-11v-8.9H125l-0.2,0c-0.8,0.4-1.7,0.7-2.5,1.1c-0.9,0.4-1.7,0.9-2.3,1.4l-0.2,0.1v5.6c-1.9,0.5-3.8,1.3-5.6,2.4l-0.2,0.1v2.6h5.8v21c0,3.5,0.8,6.2,2.4,7.8c1.6,1.6,4,2.4,7,2.4c1.2,0,2.3-0.1,3.4-0.4c1.1-0.3,2.1-0.6,3-1c0.9-0.4,1.8-0.9,2.5-1.3c0.7-0.5,1.3-0.9,1.7-1.4l0.2-0.3l-0.9-1.7L138.8,219.2z"/>
<path d="M165,188.7c-2.9,0-5.3,0.7-7.2,2.2c-1.3,1-2.5,2.4-3.4,3.9v-6.1l-2.4,0c-1.6,0.2-3.2,0.5-4.8,0.9c-1.7,0.4-3.3,0.9-4.9,1.5l-0.3,0.1v2.5l4.8,0.5v39.4c-1.5,0.4-3,0.9-4.5,1.6l-0.3,0.1v2.5h17.2v-2.5l-0.3-0.1c-0.9-0.5-1.8-0.9-2.6-1.2c-0.7-0.2-1.3-0.4-2-0.5v-9.6c1,0.4,1.9,0.6,2.8,0.8c1,0.2,2.5,0.3,4.3,0.3c2.6,0,5.1-0.4,7.2-1.3c2.2-0.9,4-2.2,5.6-3.8c1.5-1.6,2.7-3.6,3.5-6c0.8-2.4,1.2-5,1.2-7.9c0-6.1-1.2-10.6-3.7-13.4C173,190.1,169.5,188.7,165,188.7z M171.2,206.2c0,2.2-0.2,4.3-0.7,6.1c-0.5,1.8-1.2,3.4-2,4.8c-0.9,1.3-1.9,2.4-3.1,3.1c-1.2,0.7-2.6,1.1-4.1,1.1c-1.7,0-3.1-0.1-4.2-0.4c-0.9-0.2-1.8-0.5-2.6-0.9v-18.6c0.6-2.3,1.5-4.2,2.8-5.5c1.3-1.3,3.1-2,5.3-2c1.6,0,2.9,0.3,4,0.9c1.1,0.6,1.9,1.4,2.6,2.5c0.7,1.1,1.2,2.4,1.5,3.9C171,202.7,171.2,204.4,171.2,206.2z"/>
<path d="M212.2,217.6c0-0.7-0.1-1.6-0.1-2.5c0-2.3,0.1-4.7,0.2-7.2c0.1-2.5,0.2-5.2,0.2-7.9c0-1.3-0.1-2.6-0.4-3.9c-0.3-1.3-0.8-2.6-1.6-3.7c-0.8-1.1-2-2-3.6-2.7c-1.5-0.7-3.6-1-6.2-1c-2.8,0-5.4,0.3-7.7,0.9c-2.3,0.6-4.4,1.4-6.3,2.5l-0.3,0.2l0,0.3c0.1,1.4,0.3,2.9,0.7,4.4c0.4,1.5,0.8,2.9,1.3,4.3l0.1,0.3h2.6l3.5-8.2c0.7-0.3,1.4-0.4,2.2-0.5c0.8-0.1,1.6-0.1,2.3-0.1c1.3,0,2.4,0.3,3.3,0.8s1.4,1.3,1.9,2.4c0.4,1.1,0.7,2.3,0.8,3.8c0.1,1.4,0,3-0.1,4.8c-3.2,0.2-6.1,0.4-8.6,0.8c-2.6,0.3-4.8,0.9-6.6,1.7c-1.8,0.8-3.2,1.9-4.2,3.3c-1,1.4-1.4,3.2-1.4,5.4c0,2.9,1,5.2,3,7c2,1.8,4.5,2.6,7.6,2.6c1.6,0,3.1-0.2,4.3-0.7c1.3-0.5,2.4-1.1,3.3-1.8c0.9-0.8,1.7-1.6,2.3-2.6c0.2-0.4,0.5-0.8,0.6-1.2c0,0.8,0.1,1.6,0.1,2.4c0.1,1.3,0.4,2.5,0.9,3.6l0.1,0.3l2.2,0c1.4-0.2,2.8-0.6,4.3-1c1.5-0.5,2.9-1,4.1-1.6l0.3-0.1v-2.2l-5.1-0.7C212.3,218.8,212.2,218.2,212.2,217.6z M202.7,217.9c-0.6,0.6-1.3,1.1-2.2,1.5c-0.9,0.4-1.9,0.6-3,0.6c-1.7,0-3-0.5-4-1.5c-1-1-1.5-2.4-1.5-4.2c0-1.1,0.2-2,0.5-2.8c0.3-0.8,1-1.4,1.9-2c1-0.6,2.3-1,4.1-1.2c1.7-0.2,3.8-0.4,6.4-0.4v6.5c-0.1,0.4-0.4,0.9-0.7,1.5C203.8,216.7,203.3,217.3,202.7,217.9z"/>
<path d="M244.1,219.2c-0.9,0.3-2,0.5-3.2,0.6c-1.3,0.1-2.4,0.2-3.2,0.2c-1.7,0-2.9-0.5-3.8-1.5c-0.8-1-1.3-2.9-1.3-5.4V194h11v-4.5h-11v-8.9h-2.3l-0.2,0c-0.8,0.4-1.7,0.7-2.5,1.1c-0.9,0.4-1.7,0.9-2.3,1.4l-0.2,0.1v5.6c-1.9,0.5-3.8,1.3-5.6,2.4l-0.2,0.1v2.6h5.8v21c0,3.5,0.8,6.2,2.4,7.8c1.6,1.6,4,2.4,7,2.4c1.2,0,2.3-0.1,3.4-0.4c1.1-0.3,2.1-0.6,3-1c0.9-0.4,1.8-0.9,2.5-1.3c0.7-0.5,1.3-0.9,1.7-1.4l0.2-0.3l-0.9-1.7L244.1,219.2z"/>
<path d="M271.1,219.2c-0.9,0.3-2,0.5-3.2,0.6c-1.3,0.1-2.4,0.2-3.2,0.2c-1.7,0-2.9-0.5-3.8-1.5c-0.8-1-1.3-2.9-1.3-5.4V194h11v-4.5h-11v-8.9h-2.3l-0.2,0c-0.8,0.4-1.7,0.7-2.5,1.1c-0.9,0.4-1.7,0.9-2.3,1.4l-0.2,0.1v5.6c-1.9,0.5-3.8,1.3-5.6,2.4l-0.2,0.1v2.6h5.8v21c0,3.5,0.8,6.2,2.4,7.8c1.6,1.6,4,2.4,7,2.4c1.2,0,2.3-0.1,3.4-0.4c1.1-0.3,2.1-0.6,3-1c0.9-0.4,1.8-0.9,2.5-1.3c0.7-0.5,1.3-0.9,1.7-1.4l0.2-0.3l-0.9-1.7L271.1,219.2z"/>
<path d="M301.9,191.6c-1.3-1-2.9-1.8-4.6-2.2c-1.7-0.4-3.4-0.7-5.2-0.7c-5.4,0-9.6,1.6-12.6,4.7c-2.9,3.1-4.4,7.7-4.4,13.6c0,2.8,0.4,5.3,1.2,7.5c0.8,2.2,1.9,4.2,3.4,5.8c1.5,1.6,3.4,2.9,5.7,3.7c2.2,0.9,4.9,1.3,7.8,1.3c1.3,0,2.7-0.2,4-0.5c1.3-0.3,2.5-0.7,3.6-1.2c1.1-0.5,2.1-1.1,3-1.8c0.9-0.7,1.5-1.5,2-2.3l0.2-0.3l-1.6-1.7l-0.4,0.3c-0.8,0.7-2.1,1.2-3.7,1.7c-1.7,0.4-3.4,0.7-5.1,0.7c-2,0-3.8-0.3-5.3-1c-1.5-0.7-2.7-1.6-3.7-2.7c-1-1.2-1.7-2.6-2.2-4.1c-0.4-1.5-0.7-3-0.7-4.7h22.7l0.1-0.4c0.2-0.9,0.3-1.8,0.4-2.6c0.1-0.8,0.1-1.6,0.1-2.4c0-2.5-0.4-4.6-1.3-6.4C304.3,194,303.2,192.6,301.9,191.6z M291.8,192.7c2.3,0,4,0.8,5.1,2.4c1.1,1.6,1.7,3.9,1.7,6.6c0,0.4,0,0.7,0,1.1c0,0.2,0,0.5-0.1,0.7h-15.1c0.3-4,1.1-6.8,2.5-8.4C287.2,193.5,289.2,192.7,291.8,192.7z"/>
<path d="M336.2,191.5c-0.3-0.7-0.6-1.4-0.9-2l-0.1-0.2l-0.3,0c-1.4-0.1-2.7,0-4,0.4c-1.3,0.4-2.5,1-3.6,1.7c-1.1,0.7-2,1.6-2.9,2.5c-0.5,0.6-0.9,1.1-1.3,1.7v-6.3l-2.4,0c-1.5,0.2-3.1,0.5-4.8,0.9c-1.7,0.4-3.3,0.9-4.9,1.6l-0.3,0.1v2.5l4.8,0.5v25.8c-0.7,0.2-1.3,0.3-2,0.5c-0.8,0.2-1.7,0.6-2.6,1.1l-0.3,0.1v2.5H329v-2.5l-0.3-0.1c-1-0.5-2-0.9-3-1.2c-0.8-0.2-1.7-0.4-2.5-0.5v-19.6c0.6-1.5,1.3-2.7,2-3.4c0.7-0.7,1.3-1.2,1.8-1.5H337v-2.3l0-0.2C336.8,192.9,336.5,192.2,336.2,191.5z"/>
<path d="M379.8,222.4c-1.2-0.7-2.8-1.3-4.6-1.6V204c0-2.8-0.3-5.2-0.8-7.1c-0.6-1.9-1.4-3.4-2.5-4.6c-1.1-1.1-2.4-2-4.1-2.4c-1.6-0.4-3.4-0.7-5.4-0.7c-2.8,0-5.3,0.8-7.3,2.3c-1.5,1.2-2.7,2.5-3.7,4v-6.3l-2.4,0c-1.8,0.3-3.6,0.7-5.2,1.1c-1.7,0.4-3.2,0.9-4.4,1.4l-0.3,0.1v2.6l4.8,0.5v25.8c-1.8,0.5-3.4,1-4.5,1.6l-0.3,0.1v2.5h16.8v-2.5l-0.2-0.1c-1.3-0.8-2.7-1.3-4.1-1.6v-19.3c0.3-0.9,0.8-1.7,1.3-2.6c0.6-0.8,1.2-1.6,2-2.3c0.8-0.7,1.6-1.2,2.6-1.6c1-0.4,2.1-0.6,3.2-0.6c2.6,0,4.4,0.9,5.4,2.7c1,1.9,1.5,4.6,1.5,7.9v15.7c-1.4,0.4-2.8,1-4,1.6l-0.3,0.1v2.5H380v-2.5L379.8,222.4z"/>
<path d="M140.7,129.4c0.2-0.2,0.4-0.3,0.6-0.3c0.2,0,0.4,0.1,0.7,0.4c0.2,0.2,0.3,0.4,0.4,0.6c0-0.1,0-0.1,0-0.2c-0.1-0.2-0.2-0.4-0.4-0.6c-0.3-0.3-0.5-0.4-0.7-0.4c-0.2,0-0.4,0.1-0.6,0.3l-0.5,0.5l0.1,0.1L140.7,129.4z M145.4,124.6l0.3,0.2l0.1-0.1l-0.3-0.3l-1.2,1.2l0.1,0.1L145.4,124.6z M144.1,126l0.2,0.3l0.1-0.1l-0.3-0.3l-1.2,1.2l0.1,0.1L144.1,126z M139.8,130.3l0.3,0.2l0.1-0.1l-0.3-0.3l-1.2,1.2l0.1,0.1L139.8,130.3z M146.8,123.2l0.3,0.2l0.1-0.1l-0.3-0.3l-1.1,1.1l0.1,0.1L146.8,123.2z M137.4,132.6l1,0.5l-0.1-0.2l-0.9-0.4l-0.4,0.4l0.1,0L137.4,132.6z M148.9,123.3c0.1-0.1,0.2-0.2,0.1-0.4c0,0.1-0.1,0.1-0.1,0.2l-0.2,0.2l-0.7-0.7l-0.1,0.1l0.8,0.8L148.9,123.3z M149.3,120.7l2,1l0,0l-0.3-0.3l-1.7-0.8l-0.3,0.3l0.1,0.1L149.3,120.7z M147.2,124.8l-0.6-0.6l-0.1,0.1l0.7,0.7l0.6-0.6l0.3,0.3l0.1-0.1l-0.3-0.3L147.2,124.8z M143.9,129.2l-0.3,0.3l-0.5-0.8l-0.2-0.1l0,0l0.7,1.1L143.9,129.2L143.9,129.2z M145.3,125.4l2.1,2.1l0.1-0.1L145.3,125.4L145.3,125.4z M148.3,125.9l-0.6-0.6l-0.1,0.1l0.7,0.7l0.7-0.7l0.3,0.3l0.1-0.1l-0.4-0.4L148.3,125.9z M142,127.8L142,127.8l0.3-0.1l2.9,1.9l0.1-0.1l-3-1.9L142,127.8z M143.9,130l0.4,0.5l0.1-0.1L143.9,130L143.9,130z M144,126.7l2.1,2.1l0.1-0.1L144,126.7L144,126.7z M149.1,123.8l1,1l0.1-0.1L149.1,123.8L149.1,123.8z M150.3,121.7L150.3,121.7l1.4,1.4l0.1-0.1l-1.2-1.2L150.3,121.7z M149.8,120L149.8,120l0.4-0.2l2.4,2.4l0.1-0.1l-2.5-2.5L149.8,120z M149.2,122.1c-0.5-0.5-0.9-0.5-1.4-0.1l-0.6,0.6l0.1,0.1l0.5-0.5c0.4-0.4,0.9-0.4,1.4,0.1c0.3,0.3,0.4,0.6,0.3,0.9l1.4,0.7l0.1-0.1l-1.5-0.7C149.6,122.7,149.5,122.4,149.2,122.1z M136.5,134.2L136.5,134.2l0.6,0.8l0.6-0.6l0.3,0.3l0.1-0.1l-0.3-0.3l-0.6,0.6L136.5,134.2z M135.6,134.9L135.6,134.9l-0.3-0.4l-1.2,1.2l0.1,0.1l1.1-1.1L135.6,134.9z M135.3,135.4l2.1,2.1l0.1-0.1L135.3,135.4L135.3,135.4z M138.2,135.9l-0.6-0.6l-0.1,0.1l0.7,0.7l0.7-0.7l0.3,0.3l0.1-0.1l-0.4-0.4L138.2,135.9z M136.8,133.3l0.3,0.2l0.1-0.1l-0.3-0.3l-1.1,1.1l0.1,0.1L136.8,133.3z M139.7,131l2.1,2.1l0.1-0.1L139.7,131L139.7,131z M139.4,134l0.5,1l0.1,0L139.4,134L139.4,134z M141.8,130.4l-0.2,0.2l-0.8-0.8l-0.1,0.1l0.8,0.8l0.2-0.2c0.1-0.1,0.2-0.3,0.1-0.4C141.9,130.2,141.9,130.3,141.8,130.4z M138.4,131.5l-0.4,0.4l0.1,0.1l0.3-0.3l0.7,1.6l1.7,0.7l0.1-0.1l-1.8-0.8L138.4,131.5z M142,131.1l0.9,0.9l0.1-0.1L142,131.1L142,131.1z M243.3,158.9C243.1,158.7,243.2,158.8,243.3,158.9L243.3,158.9z M215.3,102.2c0,0,3,3.4,4.6,5.1c1.6,1.6,5.1,5,5.1,5s-2.1-2.5-4.6-5C218,104.8,215.3,102.2,215.3,102.2z M230.2,108.2c-8.5-8.5-17.1-17.9-25-26.4l22.3-22.3c5.7-5.7,18.1-11.6,18.1-11.6l15.6-15.6l2.8-4.1L243.8,8l-4.1,2.8l-15.6,15.6c0,0-5.9,12.5-11.6,18.1l-21.8,21.8c-0.5-0.5-1-1-1.5-1.5c-8.2-8.2-21.8-20.5-27.9-26L176,24.2v-3.7c0,0-3-4.2-9.7-10.9C159.7,3,155.5,0,155.5,0h-3.7L104,47.7v3.7c0,0,3,4.2,9.7,10.9c5.3,5.3,10.9,9.7,10.9,9.7h3.7l14.6-14.6c5.5,6.1,17.8,19.7,26,27.9c0.5,0.5,1,1,1.5,1.5l-46.7,46.7c-2.7,2.7-7.3,4-7.3,4l-4.3,4.3c0,0,3.5,5.5,7.9,9.9l0,0c4.4,4.4,10.4,8.4,10.4,8.4l4.3-4.3c0,0,1.2-4.5,4-7.3l47.2-47.2c8.5,7.8,17.8,16.4,26.4,25c16.5,16.5,31,32.6,31.5,33c2.3,2.3,8.1-0.3,13.6-5.9c5.9-5.9,8-11.6,6-13.5C262.6,139,246.7,124.7,230.2,108.2z M164,43.9c6.9,6.2,17.2,15.7,23.9,22.4c0.5,0.5,1,1,1.5,1.5l-3.6,3.6c-2.2-2.2-4.5-4.5-4.5-4.5s2.1,2.7,4.1,5l-2.6,2.6c-2.9-2.9-5.3-5.4-6.3-6.4c-2.9-2.9-6-6-7.3-7.2c-1.2-1.2-3.4-3.8-4.7-5.1c-1.3-1.3-3.6-3.3-5.1-4.9c-0.5-0.5-1.2-1.2-2-2c0.8-0.9,1.7-1.7,2.6-2.4c2.2,2.3,4.6,4.9,7,7.3c6.1,6.1,12.9,12,12.9,12s-5-5-12.5-12.5c-2.5-2.5-4.9-4.9-7.1-7.1C161.5,45,162.9,44.2,164,43.9C164,43.9,164,43.9,164,43.9z M180.4,76.6l-1.1,1.1c-0.9-0.9-1.8-1.8-2.6-2.5c-4.4-4.4-9.8-10-15.1-15.3c-2-2-4.6-4.6-7-7c0.2-0.5,0.4-1.1,0.7-1.6c2.7,2.6,5.6,5.4,7.9,7.6c3,3,7.6,6.9,7.6,6.9c-3.4-3.5-7.6-8.1-9.1-9.6c-1.5-1.5-3.8-3.6-6-5.6c0.3-0.4,0.5-0.8,0.9-1.2c0.9,0.7,1.6,1.3,2.2,1.9c1.7,1.7,4.5,4.4,5.5,5.4c1,1,3.7,3.6,5.7,5.6c2,2,6.2,6.5,7.2,7.5c1.8,1.8,3.4,3.4,5.1,4.9l-1.4,1.4c-5.8-5.3-12.8-11.7-12.8-11.7C169.5,65.9,174.6,70.8,180.4,76.6z M140.3,40.5l-2.8-2.8l-0.5,0.5l-0.4-0.4l0.1-0.1l0.3,0.3l0.5-0.5l2.8,2.8l0.4-0.4l0.1,0.1L140.3,40.5z M137.9,37l0.4-0.4l0.1,0.1l-0.4,0.4L137.9,37z M141.4,39.4l-1-2.4l-2.2-0.9l0.1-0.1l2,0.9l1,2.4l0.4-0.4l0.1,0.1L141.4,39.4z M139.4,34.9L139.4,34.9L140,36l-0.1-0.1L139.4,34.9z M142.7,38.1l-1.4-0.6l-0.1-0.3l1.5,0.7l0.4-0.4l0.1,0.1L142.7,38.1z M143.4,37.4l-3.3-3.3l0.1-0.1l3.2,3.2l0.4-0.4l0.1,0.1L143.4,37.4z M141,33.9l0.2-0.2c0.4-0.4,0.6-0.1,0.9,0.2c0.2,0.2,0.4,0.4,0.3,0.6c0-0.1-0.2-0.3-0.3-0.4c-0.3-0.3-0.6-0.6-0.9-0.2l-0.1,0.1L141,33.9z M142.6,35.5l0.2-0.2c0.3-0.3,0.4-0.5,0.3-0.8c0,0,0,0,0,0c0.1,0.3,0,0.7-0.3,1l-0.1,0.1L142.6,35.5z M130,26c-9.2,9.2-22.3,23.2-22.3,23.2s2.7,5.1,8.3,10.8c5.7,5.7,10.8,8.3,10.8,8.3l0.6,1.7h-2.3c0,0-3.5-2.5-10.1-9.1c-6.6-6.6-9.1-10.1-9.1-10.1v-2.3L152.6,2h2.3c0,0,3.5,2.5,10.1,9.1c6.6,6.6,9.1,10.1,9.1,10.1v2.3l-1.7-0.6c0,0-2.9-4.9-8.5-10.6c-5.7-5.7-10.6-8.5-10.6-8.5S139.3,16.8,130,26z M154.5,53.6c3.3,3.2,6.8,6.5,8.2,8c3.3,3.3,8.3,8.8,11.3,11.8c0.9,0.9,2.8,2.7,4.9,4.6l-0.7,0.7c-3.8-3.7-8.9-8.7-16.2-15.9c-2.9-2.9-5.5-5.5-7.9-7.7C154.3,54.6,154.4,54.1,154.5,53.6z M156.3,59.6c-1.1-1.1-1.7-2.2-1.9-3.4c4.1,4,8.7,8.5,12,11.7c3.3,3.3,7.6,7.4,11.6,11.2l-1.1,1.1C170,73.4,160.8,64.2,156.3,59.6z M134.4,144.3c-3.3,3.3-4.9,7.1-4.9,7.1h0l-2.7,2.7l3.3,3.3c0,0-5.7-4.1-8.7-7.2c-3-3-6.7-8.3-6.7-8.3l2.7-2.7c0,0,4.4-1.1,7.6-4.4l85.9-85.9l0.2-0.2l2.8-2.8c5.7-5.7,12-18.6,12-18.6L241,12.3l2.5-1.7l17.9,17.9l-1.7,2.5l0,0l0,0l-15.1,15.1c0,0-15.6,3.5-21.3,9.3l-3,3h0L134.4,144.3z M260.6,146c-2.1-1.9-9.6-8.3-11.3-10c-1.9-1.9-7.5-7.5-8.6-8.6c-1.2-1.2-5.3-4.4-5.3-4.4s2.9,3.1,3.7,3.9c0.8,0.8,5.2,4.4,8.4,7.7c2.8,2.8,10.3,10.4,12.4,12.5c-0.7,1-1.5,2.1-2.7,3.3c-1.8-1.6-7.5-6.5-10-9c-3-3-5.6-5.4-8.8-8.5c-3.1-3.1-6.3-5.9-9-8.7c-2.8-2.8-10.8-11.1-10.8-11.1s8.2,9.3,11.2,12.3c3,3,5.2,4.5,8.8,8.1c3.6,3.6,9,9.3,11.2,11.4c1.7,1.7,5.6,4.8,7,5.9c-0.3,0.3-0.6,0.7-1,1c-0.5,0.5-1.1,1-1.6,1.5c0,0,0,0,0,0c-0.5-0.1-1.1-0.5-1.7-1.2c-0.8-0.8-16.1-16.4-32.6-32.9c-6.1-6.1-18.3-17.3-20-18.8c-1.4-1.2-2-2.4-2.2-3.6c1.8,1.7,3.6,3.4,5.3,5c4.7,4.7,9.7,9.1,9.7,9.1s-8.1-8.3-11.7-11.9c-0.8-0.8-2-1.9-3.4-3.1c0-0.7,0.2-1.4,0.5-2c2.3,2.2,3.9,3.9,4.6,4.6c3.5,3.5,7.5,7.9,9.6,9.9c2.1,2.1,7.8,8,7.8,8s-7.7-8.7-12.2-13.2c-2.2-2.2-5.8-5.9-9.6-9.8c0.1-0.3,0.3-0.6,0.5-0.8c0.1-0.2,0.3-0.5,0.5-0.8c4,4.2,7.8,8.1,9.1,9.3c4.1,4.1,9.7,9.9,12.5,12.8c2.9,2.9,9.3,9.1,12.6,12.3c3.3,3.3,7.6,7.5,10.5,10.4c2.9,2.9,10.8,9.6,10.8,9.6s-12.5-12.3-17-16.8c-4.5-4.5-10.1-9.5-12.9-12.3c-3.9-3.9-10.2-10.7-13.5-14c-3.3-3.3-4.3-3.9-5-4.6c-0.5-0.5-4.1-4.3-6.8-7.1c1.9-2.3,5.1-4.8,7.3-5c7,7.5,14.4,15.6,21.9,23c16.5,16.5,32.9,31.3,33,31.5C261.9,141.2,262.5,142.7,260.6,146z"/>
</g>
</svg>
