<?xml version="1.0" encoding="utf-8"?>
<!DOCTYPE svg>
<svg version="1.1" baseProfile="full" xmlns="http://www.w3.org/2000/svg" xmlns:xlink="http://www.w3.org/1999/xlink" x="0px" y="0px" width="492px" height="80px" viewBox="0 0 492 80" enable-background="new 0 0 492 80" xml:space="preserve">
<style type="text/css" >
<![CDATA[
g { fill: #ffffff; }
]]>
</style>
<g>
<path d="M154.6,29.9c0.1-1,0.3-2,0.3-3.2l0.2-3.5c0.1-1.2,0.1-2.4,0.2-3.5c0-1.1,0.1-2.2,0.1-3.1v-0.5L112,16v1c0,0.9,0,1.5,0.1,2.7c0,1.2,0.1,2.3,0.2,3.5c0.1,1.2,0.2,2.4,0.3,3.5c0.1,1.2,0.2,2.2,0.4,3.1l0.1,0.4h2.6l3.9-9.7h10.3l0,39.8c-1.1,0.2-2.2,0.4-3.2,0.6c-1.1,0.3-2.2,0.6-3.3,1l-0.3,0.1V65h21.5v-2.8l-0.3-0.1c-1-0.4-2.1-0.7-3.3-1c-1-0.2-2-0.4-3.1-0.6l0-39.9H148l3.8,9.7h2.7L154.6,29.9z"/>
<path d="M181.2,31.6c-1.3-1-2.9-1.8-4.6-2.2c-1.7-0.4-3.4-0.7-5.2-0.7c-5.4,0-9.6,1.6-12.6,4.7c-2.9,3.1-4.4,7.7-4.4,13.6c0,2.8,0.4,5.3,1.2,7.5c0.8,2.2,1.9,4.2,3.4,5.8c1.5,1.6,3.4,2.9,5.7,3.7c2.2,0.9,4.9,1.3,7.8,1.3c1.3,0,2.7-0.2,4-0.5c1.3-0.3,2.5-0.7,3.6-1.2c1.1-0.5,2.1-1.1,3-1.8c0.9-0.7,1.5-1.5,2-2.3l0.2-0.3l-1.6-1.7l-0.4,0.3c-0.8,0.7-2.1,1.2-3.7,1.7c-1.7,0.4-3.4,0.7-5.1,0.7c-2,0-3.8-0.3-5.3-1c-1.5-0.7-2.7-1.6-3.7-2.7c-1-1.2-1.7-2.6-2.2-4.1c-0.4-1.5-0.7-3-0.7-4.7h22.7l0.1-0.4c0.2-0.9,0.3-1.8,0.4-2.6c0.1-0.8,0.1-1.6,0.1-2.4c0-2.5-0.4-4.6-1.3-6.4C183.7,34,182.6,32.6,181.2,31.6z M171.2,32.7c2.3,0,4,0.8,5.1,2.4c1.1,1.6,1.7,3.9,1.7,6.6c0,0.4,0,0.7,0,1.1c0,0.2,0,0.5-0.1,0.7h-15.1c0.3-4,1.1-6.8,2.5-8.4C166.6,33.5,168.5,32.7,171.2,32.7z"/>
<path d="M222.9,61.4c-0.6-0.2-1.2-0.5-1.9-0.7l-11.2-14.4l9.7-11.9c1.8-0.5,3.1-1,4.1-1.6l0.2-0.1v-2.5h-13.2v2.5l0.2,0.1c0.7,0.5,1.8,1,3.1,1.5l-6.6,9.1l-6.8-9.1c0.4-0.2,0.9-0.3,1.3-0.5c0.6-0.3,1.2-0.6,1.7-1l0.2-0.1v-2.5h-15.7v2.5l0.2,0.1c0.6,0.4,1.2,0.7,1.8,0.9c0.5,0.2,1.1,0.5,1.8,0.7l10.6,13.3L192,60.7c-1.3,0.3-2.7,0.9-4.1,1.6l-0.3,0.1V65h13.5v-2.5l-0.3-0.1c-0.6-0.3-1.2-0.6-1.8-0.9c-0.4-0.2-0.8-0.4-1.3-0.5l7.4-10l7.3,10c-0.4,0.1-0.8,0.3-1.2,0.5c-0.6,0.3-1.2,0.6-1.9,1l-0.3,0.1V65h16v-2.5l-0.2-0.1C224.3,62,223.6,61.7,222.9,61.4z"/>
<path d="M250.8,59.2c-0.9,0.3-2,0.5-3.2,0.6c-1.3,0.1-2.4,0.2-3.2,0.2c-1.7,0-2.9-0.5-3.8-1.5c-0.8-1-1.3-2.9-1.3-5.4V34h11v-4.5h-11v-8.9H237l-0.2,0c-0.8,0.4-1.7,0.7-2.5,1.1c-0.9,0.4-1.7,0.9-2.3,1.4l-0.2,0.1v5.6c-1.9,0.5-3.8,1.3-5.6,2.4l-0.2,0.1V34h5.8v21c0,3.5,0.8,6.2,2.4,7.8c1.6,1.6,4,2.4,7,2.4c1.2,0,2.3-0.1,3.4-0.4c1.1-0.3,2.1-0.6,3-1c0.9-0.4,1.8-0.9,2.5-1.3c0.7-0.5,1.3-0.9,1.7-1.4l0.2-0.3l-0.9-1.7L250.8,59.2z"/>
<path d="M277,28.7c-2.9,0-5.3,0.7-7.2,2.2c-1.3,1-2.5,2.4-3.4,3.9v-6.1l-2.4,0c-1.6,0.2-3.2,0.5-4.8,0.9c-1.7,0.4-3.3,0.9-4.9,1.5l-0.3,0.1v2.5l4.8,0.5v39.4c-1.5,0.4-3,0.9-4.5,1.6l-0.3,0.1V78h17.2v-2.5l-0.3-0.1c-0.9-0.5-1.8-0.9-2.6-1.2c-0.7-0.2-1.3-0.4-2-0.5v-9.6c1,0.4,1.9,0.6,2.8,0.8c1,0.2,2.5,0.3,4.3,0.3c2.6,0,5.1-0.4,7.2-1.3c2.2-0.9,4-2.2,5.6-3.8c1.5-1.6,2.7-3.6,3.5-6c0.8-2.4,1.2-5,1.2-7.9c0-6.1-1.2-10.6-3.7-13.4C285,30.1,281.5,28.7,277,28.7z M283.2,46.2c0,2.2-0.2,4.3-0.7,6.1c-0.5,1.8-1.1,3.4-2,4.8c-0.9,1.3-1.9,2.4-3.1,3.1c-1.2,0.7-2.6,1.1-4.1,1.1c-1.7,0-3.1-0.1-4.2-0.4c-0.9-0.2-1.8-0.5-2.6-0.9V41.3c0.6-2.3,1.5-4.2,2.8-5.5c1.3-1.3,3.1-2,5.3-2c1.6,0,2.9,0.3,4,0.9c1.1,0.6,1.9,1.4,2.6,2.5c0.7,1.1,1.2,2.4,1.5,3.9C283,42.7,283.2,44.4,283.2,46.2z"/>
<path d="M324.2,57.6c0-0.7-0.1-1.6-0.1-2.5c0-2.3,0.1-4.7,0.2-7.2c0.1-2.5,0.2-5.2,0.2-7.9c0-1.3-0.1-2.6-0.4-3.9c-0.3-1.3-0.8-2.6-1.6-3.7c-0.8-1.1-2-2-3.6-2.7c-1.5-0.7-3.6-1-6.2-1c-2.8,0-5.4,0.3-7.7,0.9c-2.3,0.6-4.4,1.4-6.3,2.5l-0.3,0.2l0,0.3c0.1,1.4,0.3,2.9,0.7,4.4c0.4,1.5,0.8,2.9,1.3,4.3l0.1,0.3h2.6l3.5-8.2c0.7-0.3,1.4-0.4,2.2-0.5c0.8-0.1,1.6-0.1,2.3-0.1c1.3,0,2.4,0.3,3.3,0.8s1.4,1.3,1.9,2.4c0.4,1.1,0.7,2.3,0.8,3.8c0.1,1.4,0,3-0.1,4.8c-3.2,0.2-6.1,0.4-8.6,0.8c-2.6,0.3-4.8,0.9-6.6,1.7c-1.8,0.8-3.2,1.9-4.2,3.3c-1,1.4-1.4,3.2-1.4,5.4c0,2.9,1,5.2,3,7c2,1.8,4.5,2.6,7.6,2.6c1.6,0,3.1-0.2,4.3-0.7c1.3-0.5,2.4-1.1,3.3-1.8c0.9-0.8,1.7-1.6,2.3-2.6c0.2-0.4,0.5-0.8,0.6-1.2c0,0.8,0.1,1.6,0.1,2.4c0.1,1.3,0.4,2.5,0.9,3.6l0.1,0.3l2.2,0c1.4-0.2,2.8-0.6,4.3-1c1.5-0.5,2.9-1,4.1-1.6l0.3-0.1v-2.2l-5.1-0.7C324.3,58.8,324.2,58.2,324.2,57.6z M314.7,57.9c-0.6,0.6-1.3,1.1-2.2,1.5c-0.9,0.4-1.9,0.6-3,0.6c-1.7,0-3-0.5-4-1.5c-1-1-1.5-2.4-1.5-4.2c0-1.1,0.2-2,0.5-2.8c0.3-0.8,1-1.4,1.9-2c1-0.6,2.3-1,4.1-1.2c1.7-0.2,3.8-0.4,6.4-0.4v6.5c-0.1,0.4-0.4,0.9-0.7,1.5C315.8,56.7,315.3,57.3,314.7,57.9z"/>
<path d="M356.1,59.2c-0.9,0.3-2,0.5-3.2,0.6c-1.3,0.1-2.4,0.2-3.2,0.2c-1.7,0-2.9-0.5-3.8-1.5c-0.8-1-1.3-2.9-1.3-5.4V34h11v-4.5h-11v-8.9h-2.3l-0.2,0c-0.8,0.4-1.7,0.7-2.5,1.1c-0.9,0.4-1.7,0.9-2.3,1.4l-0.2,0.1v5.6c-1.9,0.5-3.8,1.3-5.6,2.4l-0.2,0.1V34h5.8v21c0,3.5,0.8,6.2,2.4,7.8c1.6,1.6,4,2.4,7,2.4c1.2,0,2.3-0.1,3.4-0.4c1.1-0.3,2.1-0.6,3-1c0.9-0.4,1.8-0.9,2.5-1.3c0.7-0.5,1.3-0.9,1.7-1.4l0.2-0.3l-0.9-1.7L356.1,59.2z"/>
<path d="M383.1,59.2c-0.9,0.3-2,0.5-3.2,0.6c-1.3,0.1-2.4,0.2-3.2,0.2c-1.7,0-2.9-0.5-3.8-1.5c-0.8-1-1.3-2.9-1.3-5.4V34h11v-4.5h-11v-8.9h-2.3l-0.2,0c-0.8,0.4-1.7,0.7-2.5,1.1c-0.9,0.4-1.7,0.9-2.3,1.4l-0.2,0.1v5.6c-1.9,0.5-3.8,1.3-5.6,2.4l-0.2,0.1V34h5.8v21c0,3.5,0.8,6.2,2.4,7.8c1.6,1.6,4,2.4,7,2.4c1.2,0,2.3-0.1,3.4-0.4c1.1-0.3,2.1-0.6,3-1c0.9-0.4,1.8-0.9,2.5-1.3c0.7-0.5,1.3-0.9,1.7-1.4l0.2-0.3l-0.9-1.7L383.1,59.2z"/>
<path d="M413.9,31.6c-1.3-1-2.9-1.8-4.6-2.2c-1.7-0.4-3.4-0.7-5.2-0.7c-5.4,0-9.6,1.6-12.6,4.7c-2.9,3.1-4.4,7.7-4.4,13.6c0,2.8,0.4,5.3,1.2,7.5c0.8,2.2,1.9,4.2,3.4,5.8c1.5,1.6,3.4,2.9,5.7,3.7c2.2,0.9,4.9,1.3,7.8,1.3c1.3,0,2.7-0.2,4-0.5c1.3-0.3,2.5-0.7,3.6-1.2c1.1-0.5,2.1-1.1,3-1.8c0.9-0.7,1.5-1.5,2-2.3l0.2-0.3l-1.6-1.7l-0.4,0.3c-0.8,0.7-2.1,1.2-3.7,1.7c-1.7,0.4-3.4,0.7-5.1,0.7c-2,0-3.8-0.3-5.3-1c-1.5-0.7-2.7-1.6-3.7-2.7c-1-1.2-1.7-2.6-2.2-4.1c-0.4-1.5-0.7-3-0.7-4.7h22.7l0.1-0.4c0.2-0.9,0.3-1.8,0.4-2.6c0.1-0.8,0.1-1.6,0.1-2.4c0-2.5-0.4-4.6-1.3-6.4C416.3,34,415.2,32.6,413.9,31.6z M403.8,32.7c2.3,0,4,0.8,5.1,2.4c1.1,1.6,1.7,3.9,1.7,6.6c0,0.4,0,0.7,0,1.1c0,0.2,0,0.5-0.1,0.7h-15.1c0.3-4,1.1-6.8,2.5-8.4C399.2,33.5,401.2,32.7,403.8,32.7z"/>
<path d="M448.2,31.5c-0.3-0.7-0.6-1.4-0.9-2l-0.1-0.2l-0.3,0c-1.4-0.1-2.7,0-4,0.4c-1.3,0.4-2.5,1-3.6,1.7c-1.1,0.7-2,1.6-2.9,2.5c-0.5,0.6-0.9,1.1-1.3,1.7v-6.3l-2.4,0c-1.5,0.2-3.1,0.5-4.8,0.9c-1.7,0.4-3.3,0.9-4.9,1.6l-0.3,0.1v2.5l4.8,0.5v25.8c-0.7,0.2-1.3,0.3-2,0.5c-0.8,0.2-1.7,0.6-2.6,1.1l-0.3,0.1V65H441v-2.5l-0.3-0.1c-1-0.5-2-0.9-3-1.2c-0.8-0.2-1.7-0.4-2.5-0.5V41.1c0.6-1.5,1.3-2.7,2-3.4c0.7-0.7,1.3-1.2,1.8-1.5H449v-2.3l0-0.2C448.8,32.9,448.5,32.2,448.2,31.5z"/>
<path d="M491.8,62.4c-1.2-0.7-2.8-1.3-4.6-1.6V44c0-2.8-0.3-5.2-0.8-7.1c-0.6-1.9-1.4-3.4-2.5-4.6c-1.1-1.1-2.4-2-4.1-2.4c-1.6-0.4-3.4-0.7-5.4-0.7c-2.8,0-5.3,0.8-7.3,2.3c-1.5,1.2-2.7,2.5-3.7,4v-6.3l-2.4,0c-1.8,0.3-3.6,0.7-5.2,1.1c-1.7,0.4-3.2,0.9-4.4,1.4l-0.3,0.1v2.6l4.8,0.5v25.8c-1.8,0.5-3.4,1-4.5,1.6l-0.3,0.1V65h16.8v-2.5l-0.2-0.1c-1.3-0.8-2.7-1.3-4.1-1.6V41.4c0.3-0.9,0.8-1.7,1.3-2.6c0.6-0.8,1.2-1.6,2-2.3c0.8-0.7,1.6-1.2,2.6-1.6c1-0.4,2.1-0.6,3.2-0.6c2.6,0,4.4,0.9,5.4,2.7c1,1.9,1.5,4.6,1.5,7.9v15.7c-1.4,0.4-2.8,1-4,1.6l-0.3,0.1V65H492v-2.5L491.8,62.4z"/>
<path d="M18.3,64.7c0.1-0.1,0.2-0.1,0.3-0.1c0.1,0,0.2,0.1,0.4,0.2c0.1,0.1,0.2,0.2,0.2,0.3c0,0,0-0.1,0-0.1c0-0.1-0.1-0.2-0.2-0.3c-0.1-0.1-0.2-0.2-0.4-0.2C18.5,64.5,18.4,64.5,18.3,64.7l-0.3,0.2l0,0L18.3,64.7z M20.7,62.3l0.1,0.1l0,0L20.7,62.3l-0.6,0.5l0,0L20.7,62.3z M20,63l0.1,0.1l0,0L20,63l-0.6,0.5l0,0L20,63z M17.9,65.1l0.1,0.1l0,0L17.9,65.1l-0.6,0.5l0,0L17.9,65.1z M21.4,61.6l0.1,0.1l0,0L21.4,61.6L20.9,62l0,0L21.4,61.6z M16.7,66.3l0.5,0.2l0-0.1L16.7,66.3l-0.2,0.1l0.1,0L16.7,66.3z M22.5,61.7c0.1-0.1,0.1-0.1,0.1-0.2C22.5,61.5,22.5,61.5,22.5,61.7l-0.1,0L22,61.3l0,0l0.4,0.4L22.5,61.7z M22.6,60.4l1,0.5l0,0l-0.1-0.1L22.6,60.4l-0.2,0.1l0,0L22.6,60.4z M21.6,62.4l-0.3-0.3l0,0L21.6,62.4l0.3-0.2l0.1,0.1l0,0l-0.2-0.2L21.6,62.4z M19.9,64.6l-0.1,0.1l-0.3-0.4l-0.1-0.1l0,0l0.4,0.5L19.9,64.6L19.9,64.6z M20.7,62.7l1,1l0,0L20.7,62.7L20.7,62.7z M22.1,62.9l-0.3-0.3l0,0L22.1,62.9l0.4-0.3l0.1,0.1l0,0l-0.2-0.2L22.1,62.9z M19,63.9L19,63.9l0.1-0.1l1.5,0.9l0,0l-1.5-1L19,63.9z M19.9,65l0.2,0.3l0,0L19.9,65L19.9,65z M20,63.4l1,1l0,0L20,63.4L20,63.4z M22.5,61.9l0.5,0.5l0,0L22.5,61.9L22.5,61.9z M23.2,60.9L23.2,60.9l0.7,0.7l0,0l-0.6-0.6L23.2,60.9z M22.9,60L22.9,60l0.2-0.1l1.2,1.2l0,0l-1.2-1.2L22.9,60z M22.6,61.1c-0.2-0.2-0.5-0.3-0.7,0l-0.3,0.3l0,0l0.2-0.2C22.1,60.9,22.4,60.9,22.6,61.1c0.1,0.2,0.2,0.4,0.2,0.5l0.7,0.3l0.1-0.1l-0.8-0.4C22.8,61.3,22.7,61.2,22.6,61.1z M16.2,67.1L16.2,67.1l0.3,0.4l0.3-0.3l0.1,0.1l0,0l-0.2-0.2l-0.3,0.3L16.2,67.1z M15.8,67.5L15.8,67.5l-0.1-0.2l-0.6,0.6l0,0l0.5-0.5L15.8,67.5z M15.6,67.7l1,1l0,0L15.6,67.7L15.6,67.7z M17.1,68l-0.3-0.3l0,0L17.1,68l0.4-0.3l0.1,0.1l0,0l-0.2-0.2L17.1,68z M16.4,66.6l0.1,0.1l0,0L16.4,66.6l-0.5,0.4l0,0L16.4,66.6z M17.8,65.5l1,1l0,0L17.8,65.5L17.8,65.5z M17.7,67l0.2,0.5l0,0L17.7,67L17.7,67z M18.9,65.2L18.9,65.2l-0.5-0.3l0,0l0.4,0.4L18.9,65.2c0.1,0,0.1-0.1,0.1-0.1C19,65.1,19,65.2,18.9,65.2z M17.2,65.8L17,65.9l0,0.1L17.2,65.8l0.4,0.9l0.8,0.4l0.1-0.1l-0.9-0.4L17.2,65.8z M19,65.5l0.4,0.4l0,0L19,65.5L19,65.5z M69.7,79.5C69.6,79.3,69.6,79.4,69.7,79.5L69.7,79.5z M55.6,51.1c0,0,1.5,1.7,2.3,2.5c0.8,0.8,2.6,2.5,2.6,2.5s-1-1.3-2.3-2.5C57,52.4,55.6,51.1,55.6,51.1z M63.1,54.1c-4.3-4.3-8.6-9-12.5-13.2l11.1-11.1c2.8-2.8,9.1-5.8,9.1-5.8l7.8-7.8l1.4-2L69.9,4l-2,1.4L60,13.2c0,0-3,6.2-5.8,9.1L43.3,33.2c-0.2-0.2-0.5-0.5-0.7-0.7c-4.1-4.1-10.9-10.3-13.9-13l7.3-7.3v-1.9c0,0-1.5-2.1-4.8-5.4C27.8,1.5,25.7,0,25.7,0h-1.9L0,23.9v1.9c0,0,1.5,2.1,4.8,5.4c2.6,2.6,5.4,4.8,5.4,4.8h1.9l7.3-7.3c2.7,3,8.9,9.8,13,13.9c0.2,0.2,0.5,0.5,0.7,0.7L9.8,66.7c-1.4,1.4-3.6,2-3.6,2L4,70.9c0,0,1.7,2.7,3.9,5l0,0c2.2,2.2,5.2,4.2,5.2,4.2l2.2-2.2c0,0,0.6-2.3,2-3.6l23.6-23.6c4.2,3.9,8.9,8.2,13.2,12.5c8.3,8.3,15.5,16.3,15.7,16.5c1.1,1.1,4-0.2,6.8-3c2.9-2.9,4-5.8,3-6.8C79.3,69.5,71.3,62.3,63.1,54.1z M30,21.9c3.4,3.1,8.6,7.8,11.9,11.2c0.2,0.2,0.5,0.5,0.7,0.7l-1.8,1.8c-1.1-1.1-2.3-2.3-2.3-2.3s1.1,1.4,2.1,2.5l-1.3,1.3c-1.4-1.5-2.7-2.7-3.2-3.2c-1.5-1.5-3-3-3.6-3.6c-0.6-0.6-1.7-1.9-2.4-2.6c-0.7-0.7-1.8-1.7-2.6-2.4c-0.2-0.2-0.6-0.6-1-1c0.4-0.4,0.8-0.8,1.3-1.2c1.1,1.2,2.3,2.5,3.5,3.6c3,3,6.4,6,6.4,6s-2.5-2.5-6.2-6.2c-1.2-1.2-2.5-2.5-3.5-3.5C28.7,22.5,29.4,22.1,30,21.9C30,21.9,30,21.9,30,21.9z M38.2,38.3l-0.6,0.6c-0.5-0.5-0.9-0.9-1.3-1.3c-2.2-2.2-4.9-5-7.5-7.6c-1-1-2.3-2.3-3.5-3.5c0.1-0.3,0.2-0.5,0.4-0.8c1.3,1.3,2.8,2.7,3.9,3.8c1.5,1.5,3.8,3.4,3.8,3.4c-1.7-1.8-3.8-4.1-4.5-4.8c-0.8-0.8-1.9-1.8-3-2.8c0.1-0.2,0.3-0.4,0.4-0.6c0.4,0.4,0.8,0.7,1.1,0.9c0.9,0.9,2.2,2.2,2.7,2.7c0.5,0.5,1.9,1.8,2.8,2.8c1,1,3.1,3.3,3.6,3.8c0.9,0.9,1.7,1.7,2.5,2.5l-0.7,0.7c-2.9-2.7-6.4-5.9-6.4-5.9C32.8,32.9,35.3,35.4,38.2,38.3z M18.1,20.3l-1.4-1.4l-0.3,0.3l-0.2-0.2l0-0.1l0.2,0.2l0.3-0.3l1.4,1.4l0.2-0.2l0,0.1L18.1,20.3z M17,18.5l0.2-0.2l0,0.1L17,18.5L17,18.5z M18.7,19.7l-0.5-1.2l-1.1-0.5l0.1-0.1l1,0.4l0.5,1.2l0.2-0.2l0,0.1L18.7,19.7z M17.7,17.5L17.7,17.5L18,18l-0.1,0L17.7,17.5z M19.3,19.1l-0.7-0.3l-0.1-0.1L19.3,19.1l0.2-0.3l0.1,0L19.3,19.1z M19.7,18.7l-1.6-1.6l0.1-0.1l1.6,1.6l0.2-0.2l0,0.1L19.7,18.7z M18.5,17l0.1-0.1c0.2-0.2,0.3-0.1,0.5,0.1c0.1,0.1,0.2,0.2,0.2,0.3c0-0.1-0.1-0.1-0.2-0.2c-0.2-0.2-0.3-0.3-0.5-0.1L18.5,17L18.5,17z M19.3,17.7l0.1-0.1c0.1-0.1,0.2-0.3,0.2-0.4l0,0c0,0.2,0,0.3-0.2,0.5L19.3,17.7L19.3,17.7z M13,13C8.4,17.6,1.9,24.6,1.9,24.6S3.2,27.1,6,30c2.8,2.8,5.4,4.2,5.4,4.2l0.3,0.9h-1.1c0,0-1.7-1.2-5-4.5c-3.3-3.3-4.5-5-4.5-5v-1.1L24.3,1h1.1c0,0,1.7,1.2,5,4.5c3.3,3.3,4.5,5,4.5,5v1.1l-0.9-0.3c0,0-1.4-2.5-4.3-5.3c-2.8-2.8-5.3-4.3-5.3-4.3S17.6,8.4,13,13z M25.2,26.8c1.7,1.6,3.4,3.2,4.1,4c1.7,1.7,4.1,4.4,5.7,5.9c0.5,0.5,1.4,1.3,2.5,2.3l-0.4,0.4c-1.9-1.8-4.5-4.3-8.1-7.9c-1.4-1.4-2.8-2.7-3.9-3.9C25.1,27.3,25.2,27.1,25.2,26.8z M26.1,29.8c-0.6-0.6-0.8-1.1-0.9-1.7c2,2,4.4,4.2,6,5.9c1.6,1.6,3.8,3.7,5.8,5.6l-0.5,0.5C33,36.7,28.4,32.1,26.1,29.8z M15.2,72.1c-1.6,1.6-2.5,3.5-2.5,3.5h0l-1.4,1.4l1.6,1.6c0,0-2.9-2.1-4.4-3.6C7.1,73.6,5.3,71,5.3,71l1.4-1.4c0,0,2.2-0.5,3.8-2.2l43-43l0.1-0.1L55,23c2.9-2.9,6-9.3,6-9.3l7.5-7.5l1.3-0.9l8.9,8.9l-0.9,1.3l0,0l0,0L70.3,23c0,0-7.8,1.8-10.6,4.6l-1.5,1.5h0L15.2,72.1z M78.3,73c-1.1-0.9-4.8-4.2-5.6-5c-1-1-3.7-3.7-4.3-4.3c-0.6-0.6-2.7-2.2-2.7-2.2s1.4,1.6,1.8,2c0.4,0.4,2.6,2.2,4.2,3.9c1.4,1.4,5.2,5.2,6.2,6.3c-0.3,0.5-0.8,1-1.3,1.6c-0.9-0.8-3.7-3.3-5-4.5c-1.5-1.5-2.8-2.7-4.4-4.3c-1.6-1.6-3.1-3-4.5-4.3c-1.4-1.4-5.4-5.6-5.4-5.6s4.1,4.7,5.6,6.2c1.5,1.5,2.6,2.3,4.4,4.1c1.8,1.8,4.5,4.6,5.6,5.7c0.9,0.9,2.8,2.4,3.5,2.9c-0.2,0.2-0.3,0.3-0.5,0.5c-0.3,0.3-0.5,0.5-0.8,0.7c0,0,0,0,0,0c-0.3,0-0.5-0.2-0.9-0.6c-0.4-0.4-8.1-8.2-16.3-16.4c-3.1-3.1-9.1-8.7-10-9.4c-0.7-0.6-1-1.2-1.1-1.8c0.9,0.8,1.8,1.7,2.6,2.5c2.4,2.4,4.9,4.6,4.9,4.6s-4-4.2-5.8-6c-0.4-0.4-1-0.9-1.7-1.5c0-0.3,0.1-0.7,0.2-1c1.1,1.1,2,1.9,2.3,2.3c1.8,1.8,3.8,3.9,4.8,5c1,1,3.9,4,3.9,4s-3.9-4.4-6.1-6.6c-1.1-1.1-2.9-3-4.8-4.9c0.1-0.1,0.1-0.3,0.2-0.4c0.1-0.1,0.2-0.2,0.3-0.4c2,2.1,3.9,4,4.5,4.7c2,2,4.8,5,6.3,6.4c1.4,1.4,4.7,4.5,6.3,6.2c1.6,1.6,3.8,3.7,5.3,5.2c1.5,1.4,5.4,4.8,5.4,4.8s-6.2-6.2-8.5-8.4c-2.2-2.2-5.1-4.8-6.5-6.1c-1.9-1.9-5.1-5.3-6.8-7c-1.6-1.6-2.1-1.9-2.5-2.3c-0.3-0.3-2.1-2.2-3.4-3.6c0.9-1.2,2.5-2.4,3.7-2.5c3.5,3.8,7.2,7.8,10.9,11.5c8.3,8.3,16.4,15.7,16.5,15.8C79,70.6,79.3,71.4,78.3,73z"/>
</g>
</svg>
